<?xml version="1.0" encoding="UTF-8"?>
<svg version="1.1" xmlns="http://www.w3.org/2000/svg" width="512" height="512">
<path d="M0 0 C0.89025879 -0.00335861 1.78051758 -0.00671722 2.69775391 -0.01017761 C5.64063925 -0.01967222 8.58346748 -0.02163077 11.52636719 -0.02270508 C13.58599877 -0.0259215 15.64563012 -0.02928586 17.70526123 -0.03279114 C22.02942432 -0.03878068 26.35356743 -0.0406315 30.67773438 -0.04003906 C36.17448865 -0.03993809 41.67111184 -0.05352312 47.16783524 -0.07081127 C51.4285336 -0.08202965 55.68920142 -0.08395519 59.94991302 -0.08342934 C61.97336015 -0.08459728 63.99680839 -0.08895107 66.02024078 -0.0967617 C102.88208123 -0.22559763 133.93412927 7.99645011 161.07324219 34.14526367 C178.73367121 52.27137156 192.07324219 79.39765448 192.07324219 105.14526367 C192.94722656 105.27481445 192.94722656 105.27481445 193.83886719 105.40698242 C204.90828471 107.30409958 218.97768876 112.04971024 227.07324219 120.14526367 C230.91647878 119.81106919 233.49978825 118.47051472 236.69824219 116.39526367 C245.18901354 111.1420713 255.82355589 105.14526367 266.07324219 105.14526367 C266.20279297 103.58291992 266.20279297 103.58291992 266.33496094 101.98901367 C269.0954775 72.45079109 283.01320374 45.03185413 305.94848633 25.92407227 C332.25358149 4.81980309 361.47655536 0.00417641 394.39355469 -0.05786133 C395.4092944 -0.06068871 396.4250341 -0.06351608 397.4715538 -0.06642914 C402.83764652 -0.0813406 408.20371286 -0.09062319 413.56982422 -0.0949707 C419.09190976 -0.10047099 424.61375072 -0.12455489 430.13575935 -0.15294266 C434.40470077 -0.17160563 438.67358335 -0.1767764 442.9425621 -0.17830658 C444.97821274 -0.18132085 447.01386264 -0.18930767 449.04947281 -0.20249176 C451.89889325 -0.21964358 454.74771614 -0.21765079 457.59716797 -0.21118164 C458.84116364 -0.22500381 458.84116364 -0.22500381 460.11029053 -0.23910522 C466.97296418 -0.190567 473.02316155 1.24743572 478.88574219 4.89526367 C484.74465002 10.92156887 485.65224712 15.80629036 485.5456543 24.02148438 C485.08728387 34.82628702 480.67337477 44.58692313 472.97949219 52.22338867 C467.94824219 56.70776367 467.94824219 56.70776367 465.07324219 58.14526367 C464.86379691 60.24270855 464.75811396 62.35073787 464.69824219 64.45776367 C464.04980606 75.26136893 461.34093116 84.03290382 454.07324219 92.14526367 C453.57179688 92.74983398 453.07035156 93.3544043 452.55371094 93.97729492 C447.71978504 99.37576691 441.71507991 102.39378917 435.07324219 105.14526367 C434.41324219 105.14526367 433.75324219 105.14526367 433.07324219 105.14526367 C432.94369141 106.59545898 432.94369141 106.59545898 432.81152344 108.07495117 C431.35587137 121.56310337 427.29171046 130.73907427 417.07324219 140.14526367 C408.56147662 146.4923416 399.68702782 149.65310149 389.10058594 149.43823242 C388.2920668 149.43398758 387.48354767 149.42974274 386.65052795 149.42536926 C384.10357346 149.40876402 381.55745179 149.371149 379.01074219 149.33276367 C377.26921727 149.31769325 375.52767978 149.30400901 373.78613281 149.29174805 C369.54818857 149.25892052 365.31085587 149.20726822 361.07324219 149.14526367 C361.40807617 149.85013916 361.74291016 150.55501465 362.08789062 151.28125 C366.73985024 161.2566122 370.59611165 172.03209819 371.07324219 183.14526367 C371.15058594 184.73661133 371.15058594 184.73661133 371.22949219 186.36010742 C371.88898358 212.54741156 362.62858396 234.69505008 344.80371094 253.73901367 C343.20982987 255.39889701 341.61211888 257.05511058 340.01074219 258.70776367 C338.85880371 259.92411499 338.85880371 259.92411499 337.68359375 261.16503906 C331.3809466 267.54020054 331.3809466 267.54020054 327.18261719 268.21166992 C322.4665996 268.11095095 320.18834444 267.20009013 316.76074219 263.95776367 C314.60435918 260.36379199 314.55658269 258.27853968 315.07324219 254.14526367 C317.4943109 248.94041932 321.74006175 245.42089865 325.82324219 241.52026367 C331.92782459 235.54210954 337.13283784 229.80391308 341.07324219 222.14526367 C341.53859375 221.29061523 342.00394531 220.4359668 342.48339844 219.55541992 C350.99483049 202.65662917 350.34430776 185.18027733 345.29980469 167.42260742 C339.68129449 151.57222314 327.04165366 138.40993271 312.07324219 131.14526367 C293.38421787 123.32629094 275.05931678 123.17931845 256.37402344 130.61791992 C248.78825832 134.14792943 242.86476955 138.4598829 236.79199219 144.10620117 C233.73607458 146.39813937 231.85692112 146.94394924 228.07324219 147.14526367 C223.3113505 145.79755848 220.67247544 143.87346803 217.13574219 140.45776367 C204.60116167 128.90377959 187.69162554 124.39743364 170.93652344 124.79760742 C151.75418986 126.52382349 135.75348893 135.00053659 123.14355469 149.54370117 C111.62657562 164.01598053 107.43100329 181.44641256 109.46777344 199.67651367 C110.6390727 206.8705582 112.60748968 213.01175309 115.82324219 219.52026367 C116.28923828 220.46434082 116.28923828 220.46434082 116.76464844 221.42749023 C121.859392 231.12475612 129.42943324 238.78881389 137.1394043 246.43847656 C138.13592828 247.43443503 139.13200936 248.4308368 140.12768555 249.42764282 C142.8066126 252.10713892 145.49161902 254.78046439 148.17783809 257.45264745 C150.99347489 260.2557014 153.80337201 263.06449759 156.61390686 265.87266541 C161.92560028 271.17816611 167.24236684 276.47855201 172.56101757 281.77707714 C178.62066674 287.8142982 184.67457372 293.85726354 190.72802722 299.90069592 C203.17009564 312.32191242 215.61928419 324.73596835 228.07324219 337.14526367 C231.94635534 335.34731649 234.3601553 333.05910329 237.35449219 329.98901367 C237.84985474 329.48607788 238.34521729 328.98314209 238.85559082 328.46496582 C240.43306167 326.86314017 242.00390189 325.25505337 243.57324219 323.64526367 C245.64034807 321.5248786 247.7140248 319.41124961 249.79199219 317.30151367 C250.70916016 316.36114258 251.62632812 315.42077148 252.57128906 314.4519043 C255.70029717 311.56715912 257.75072117 310.31776641 261.94824219 309.77026367 C265.89496083 310.24386991 267.98319406 311.70196981 271.07324219 314.14526367 C272.8709739 317.7407271 272.74636601 321.23576353 272.07324219 325.14526367 C270.91503906 326.93847656 270.91503906 326.93847656 269.29199219 328.68041992 C268.65583984 329.3678125 268.0196875 330.05520508 267.36425781 330.76342773 C266.60822266 331.54943359 265.8521875 332.33543945 265.07324219 333.14526367 C264.17798828 334.08337891 263.28273438 335.02149414 262.36035156 335.98803711 C259.82287356 338.62879811 257.25568265 341.23861228 254.67578125 343.83789062 C253.60293709 344.92233929 252.53459715 346.01126165 251.47070312 347.10449219 C249.91050819 348.70749443 248.33734721 350.29669874 246.76074219 351.88354492 C245.37435547 353.29180542 245.37435547 353.29180542 243.95996094 354.72851562 C239.58137546 358.39424783 234.9573362 360.57307716 229.13574219 360.58276367 C227.97751953 360.61176758 227.97751953 360.61176758 226.79589844 360.64135742 C217.46789145 358.94170622 211.61299639 352.26341675 205.21020508 345.81567383 C204.14071205 344.75324858 203.07038111 343.69166626 201.99928284 342.63085938 C199.10547491 339.75947177 196.22444039 336.87558632 193.34627461 333.98852968 C190.93263199 331.56975602 188.51278337 329.15723917 186.09294218 326.74466932 C180.37524762 321.04395427 174.6678708 315.33305514 168.96704102 309.61547852 C163.11280158 303.74436253 157.24244421 297.88973802 151.36360365 292.04326403 C146.29598704 287.00247944 141.23829303 281.95188752 136.18830103 276.89344633 C133.18151802 273.88176835 130.17140357 270.87364574 127.15184212 267.87477493 C124.30615874 265.04766051 121.47323699 262.20831318 118.64902306 259.35975647 C117.62025341 258.32604331 116.58736452 257.29640764 115.54972076 256.27160263 C97.98387303 238.90570677 87.13257358 216.7745512 86.82324219 191.77026367 C86.83216774 176.58076309 90.22620711 162.71477664 97.07324219 149.14526367 C96.01000732 149.16621094 94.94677246 149.1871582 93.85131836 149.20874023 C89.85748078 149.28185266 85.8637007 149.32731867 81.86938477 149.36499023 C80.1498821 149.38494516 78.43044586 149.41211925 76.71118164 149.44702148 C61.57998978 149.74621341 49.38021866 147.91368093 37.91308594 137.11010742 C28.73053917 127.37832422 26.2324193 118.12112692 25.07324219 105.14526367 C24.51636719 104.99831055 23.95949219 104.85135742 23.38574219 104.69995117 C17.26279372 102.90030078 12.8785661 100.31184309 8.07324219 96.14526367 C7.45320313 95.61932617 6.83316406 95.09338867 6.19433594 94.55151367 C-0.29070511 88.61272878 -4.20786801 80.7397127 -5.92675781 72.14526367 C-5.94480469 71.04569336 -5.96285156 69.94612305 -5.98144531 68.81323242 C-5.81480861 62.03638952 -5.81480861 62.03638952 -8.55566406 56.15307617 C-10.6005335 54.67801021 -10.6005335 54.67801021 -12.80175781 53.41088867 C-20.30375012 48.94279031 -23.9100428 40.27297466 -26.53613281 32.29370117 C-27.91610934 24.70383028 -28.58712981 15.62265816 -24.36425781 8.89526367 C-17.80976976 0.79490579 -9.79205842 -0.00531907 0 0 Z M-5.92675781 21.14526367 C-5.78699238 22.59463251 -5.64123231 24.04342417 -5.49291992 25.49194336 C-5.41238876 26.29879578 -5.3318576 27.10564819 -5.24888611 27.93695068 C-4.49905226 33.07734924 -1.05657623 36.50593929 2.94094849 39.58283997 C11.49870173 44.54475634 20.48392122 43.83904915 30.06542969 43.78198242 C31.90244757 43.79003296 33.73945612 43.80055706 35.57644653 43.81343079 C40.38521393 43.84184285 45.1935489 43.84257614 50.00238037 43.83557129 C57.71900744 43.82821679 65.43549772 43.85957745 73.15201187 43.89801979 C75.84207288 43.90686453 78.53183297 43.90157389 81.22189331 43.89445496 C82.86749351 43.89783862 84.51309302 43.90158764 86.15869141 43.90576172 C87.27772102 43.89721916 87.27772102 43.89721916 88.4193573 43.88850403 C92.11685171 43.90962254 94.97492195 44.01151483 98.07324219 46.14526367 C100.61683187 49.57910974 100.36930508 53.00038311 100.07324219 57.14526367 C99.25294691 59.67450744 98.66776751 60.74101509 96.47674561 62.23080444 C93.12936208 63.50438106 89.90000579 63.45357528 86.3671875 63.46411133 C85.21051323 63.47917976 85.21051323 63.47917976 84.0304718 63.49455261 C81.48744435 63.52538724 78.9445222 63.54242041 76.40136719 63.55932617 C74.63587539 63.57803761 72.87039253 63.597611 71.10491943 63.61801147 C66.46239495 63.66934131 61.81984146 63.70896248 57.17718506 63.74615479 C52.43803733 63.78618907 47.69901032 63.83728405 42.95996094 63.88745117 C33.66447281 63.98422055 24.36891653 64.06862213 15.07324219 64.14526367 C15.26853516 66.02665039 15.26853516 66.02665039 15.46777344 67.94604492 C15.5410083 68.65156494 15.61424316 69.35708496 15.68969727 70.08398438 C16.63507795 75.16472854 20.36367276 78.9987363 24.35958862 82.05606079 C32.89333989 87.48013638 42.99898738 86.60342431 52.69042969 86.62182617 C54.39675109 86.63615544 56.10306102 86.65191588 57.80935669 86.66903687 C62.27642551 86.71068606 66.74342308 86.73582098 71.21063232 86.75653076 C78.38088868 86.79249954 85.55096971 86.8533372 92.72104263 86.91501999 C95.22213956 86.93409139 97.72318928 86.94583022 100.22433472 86.95645142 C101.75193384 86.96666035 103.27953197 86.977018 104.80712891 86.98754883 C105.50221054 86.98859116 106.19729218 86.98963348 106.91343689 86.9907074 C109.91395243 87.01631403 112.20091332 87.18782072 115.07324219 88.14526367 C117.26633599 92.75076065 117.34644316 96.23434565 116.07324219 101.14526367 C113.80790972 104.0146848 112.55601382 104.98433979 109.07324219 106.14526367 C107.06482554 106.26232601 105.05288229 106.32202335 103.04125977 106.35058594 C101.17966972 106.38050377 101.17966972 106.38050377 99.2804718 106.411026 C97.92624028 106.42800894 96.57200746 106.4448878 95.21777344 106.46166992 C93.83199959 106.48224595 92.44623194 106.50324259 91.06047058 106.52464294 C87.41583266 106.57979668 83.77113873 106.62923541 80.12640381 106.67749023 C76.40615869 106.72775423 72.68599476 106.78341471 68.96582031 106.83862305 C61.66836306 106.94612267 54.37083822 107.04758574 47.07324219 107.14526367 C47.26853516 109.02665039 47.26853516 109.02665039 47.46777344 110.94604492 C47.5410083 111.65156494 47.61424316 112.35708496 47.68969727 113.08398438 C48.79566222 119.02775403 53.46113514 122.75677686 58.07324219 126.14526367 C61.54402275 127.78171077 64.35521591 128.41249505 68.1796875 128.49926758 C69.17131897 128.52493805 70.16295044 128.55060852 71.18463135 128.57705688 C72.24615417 128.59183075 73.307677 128.60660461 74.40136719 128.62182617 C75.50494568 128.63796967 76.60852417 128.65411316 77.74554443 128.67074585 C80.07883472 128.69837058 82.41220485 128.71984035 84.74560547 128.7355957 C87.12377721 128.75864063 89.50184527 128.79955478 91.87939453 128.85864258 C95.32492962 128.94424296 98.76739925 128.97635961 102.21386719 128.99682617 C103.26729309 129.03184235 104.32071899 129.06685852 105.40606689 129.10293579 C111.37216164 129.06817475 114.58325822 128.26808546 119.09667969 124.23925781 C120.42287557 122.87524911 121.74846462 121.51064994 123.07324219 120.14526367 C136.98810858 109.87156965 153.38938859 106.12274103 170.07324219 103.14526367 C170.30657795 97.72197491 169.58323708 93.26397878 168.01074219 88.08276367 C167.78741211 87.34324463 167.56408203 86.60372559 167.33398438 85.84179688 C160.10662473 62.93795 144.23728594 43.4880486 123.07324219 32.14526367 C107.59601406 24.19770511 92.03792065 20.95425707 74.67626953 21.03173828 C73.79698792 21.03159225 72.9177063 21.03144623 72.01177979 21.03129578 C69.14422013 21.03198498 66.27672781 21.03973025 63.40917969 21.04760742 C61.40565018 21.04947514 59.40212022 21.05089737 57.39859009 21.05189514 C52.15438552 21.0556925 46.91020914 21.06549871 41.66601562 21.07659912 C36.30306377 21.08687336 30.94010732 21.09140559 25.57714844 21.09643555 C15.07583404 21.10712375 4.57454047 21.12416635 -5.92675781 21.14526367 Z M318.07324219 44.14526367 C317.18121094 44.94448242 316.28917969 45.74370117 315.37011719 46.56713867 C301.39988942 59.75690678 291.39219649 77.0467196 288.07324219 96.14526367 C288.03021672 98.47820029 288.02178412 100.81249782 288.07324219 103.14526367 C289.36617188 103.37600586 290.65910156 103.60674805 291.99121094 103.84448242 C311.69716119 107.48676946 329.54537259 113.61739408 344.07324219 128.14526367 C346.27917934 128.46498158 346.27917934 128.46498158 348.85498047 128.43579102 C349.85006622 128.44855072 350.84515198 128.46131042 351.87039185 128.47445679 C352.95053558 128.47668243 354.03067932 128.47890808 355.14355469 128.48120117 C356.25374969 128.48785797 357.3639447 128.49451477 358.50778198 128.50137329 C360.86324402 128.51151679 363.21873489 128.51618979 365.57421875 128.51586914 C369.16292503 128.52022085 372.75038045 128.55646461 376.33886719 128.59448242 C378.62792549 128.60035463 380.91698963 128.60432132 383.20605469 128.60620117 C384.27405304 128.6205722 385.34205139 128.63494324 386.44241333 128.64974976 C393.93392735 128.60428892 399.26551903 127.43107883 405.09667969 122.39916992 C409.1355137 117.34479094 411.18290632 113.74704471 411.07324219 107.14526367 C410.30982513 107.13939743 409.54640808 107.13353119 408.75985718 107.12748718 C401.55059736 107.06948257 394.3416801 106.99736196 387.13272667 106.90954876 C383.42688566 106.86490094 379.72115315 106.8256329 376.01513672 106.79882812 C372.43579486 106.77273879 368.85687182 106.73229764 365.27779007 106.68207741 C363.91516979 106.66544652 362.55247713 106.65390874 361.18976974 106.64764977 C359.27499567 106.63796837 357.36035574 106.60817829 355.44580078 106.57763672 C353.81365128 106.56098213 353.81365128 106.56098213 352.14852905 106.54399109 C348.57634187 106.08083788 346.15188375 104.9909232 343.07324219 103.14526367 C340.46676543 99.06556092 341.13431524 95.75454142 342.07324219 91.14526367 C342.56824219 89.66026367 342.56824219 89.66026367 343.07324219 88.14526367 C346.56514127 86.98129731 349.70666376 86.99299633 353.33935547 86.98754883 C354.07636185 86.98246811 354.81336823 86.97738739 355.57270813 86.97215271 C357.1736037 86.96145394 358.77451418 86.95283182 360.37543106 86.94603348 C362.91539499 86.93422463 365.4551904 86.91476407 367.99508667 86.89291382 C375.21704432 86.83138346 382.43898638 86.77737803 389.66113281 86.74389648 C394.0802979 86.72285928 398.49915808 86.68747907 402.91814804 86.64313889 C404.59648912 86.62904459 406.27488417 86.6202714 407.9532814 86.6170845 C419.58536256 86.59267134 429.47974762 86.47507727 438.40917969 78.04370117 C442.11959912 73.81068746 443.22639379 69.75444126 443.07324219 64.14526367 C442.09240662 64.13717682 441.11157104 64.12908997 440.10101318 64.12075806 C430.86040494 64.04329459 421.6199439 63.95555474 412.37952805 63.85773659 C407.62886224 63.80777725 402.87821864 63.76144713 398.12744141 63.72338867 C393.5432226 63.68653135 388.95918966 63.6401701 384.3751297 63.58720016 C382.62566639 63.56865861 380.87616323 63.55354975 379.12664032 63.54191971 C376.67733196 63.52505317 374.22844906 63.49601737 371.77929688 63.46411133 C371.05496964 63.46195114 370.3306424 63.45979095 369.58436584 63.45756531 C365.93935194 63.39685205 363.13355414 63.22612839 360.07324219 61.14526367 C357.52965251 57.71141761 357.77717929 54.29014424 358.07324219 50.14526367 C358.89109764 47.6235427 359.48168755 46.55265508 361.65670776 45.05476379 C365.0773464 43.76735351 368.38420146 43.87825227 371.98779297 43.90576172 C372.7818605 43.90374756 373.57592804 43.9017334 374.39405823 43.8996582 C376.11662574 43.89611628 377.83920627 43.89687538 379.56177139 43.90143394 C382.29539137 43.90703743 385.02858858 43.89784983 387.76217651 43.88423157 C395.53385229 43.84715834 403.30538667 43.8285229 411.07714844 43.83984375 C415.83470899 43.84572277 420.59167745 43.82729524 425.34911728 43.79395485 C427.1550417 43.78604058 428.96103134 43.7872235 430.76694107 43.79797935 C444.71473623 44.05386014 444.71473623 44.05386014 457.07324219 38.14526367 C461.12530881 34.12688542 463.06717411 31.2251939 463.6394043 25.49194336 C463.72266464 24.67876648 463.80592499 23.8655896 463.89170837 23.027771 C463.95161453 22.40654358 464.01152069 21.78531616 464.07324219 21.14526367 C452.59777779 21.09868693 441.12233631 21.06326674 429.64679623 21.04163933 C424.31682404 21.03125326 418.98691708 21.01718992 413.65698242 20.99438477 C408.50224235 20.97247013 403.34756456 20.96065624 398.19278145 20.95550919 C396.23745304 20.95184655 394.2821276 20.94469561 392.3268261 20.93380356 C364.75298984 20.78647273 339.20070699 24.95103094 318.07324219 44.14526367 Z " fill="#000000" transform="translate(26.9267578125,95.854736328125)"/>
<path d="M0 0 C1.22976562 0.04833984 1.22976562 0.04833984 2.484375 0.09765625 C9.3558379 2.18432931 13.10856165 7.7105663 16.41992188 13.765625 C17.04737305 14.96445312 17.04737305 14.96445312 17.6875 16.1875 C18.13287109 17.0021875 18.57824219 17.816875 19.03710938 18.65625 C22.25 24.61811156 22.25 24.61811156 22.25 26.9375 C23.09433594 27.19015625 23.93867187 27.4428125 24.80859375 27.703125 C28.52804057 29.03722851 31.88844926 30.74361854 35.3125 32.6875 C36.2106543 33.17089844 36.2106543 33.17089844 37.12695312 33.6640625 C42.03829342 36.43980357 45.68051239 39.79852479 48.25 44.9375 C48.77545711 49.7269123 48.77604054 53.74819094 46.8125 58.1875 C42.6169174 62.69007645 37.83868281 65.88908346 32.125 68.203125 C22.89561494 72.164795 19.76893314 76.98912569 15.76000977 86.00854492 C13.21835303 91.65069448 10.54960625 95.58082962 5.25 98.9375 C0.51326555 100.6664438 -4.31983134 100.49527772 -9 98.625 C-14.71550045 95.26900474 -17.50176556 88.98417747 -19.9375 83.0390625 C-24.15325512 73.91291078 -30.51193959 70.56058466 -39.28540039 66.12158203 C-44.67500951 63.36379332 -48.03866847 61.44277981 -50.75 55.9375 C-52.08639503 50.68737665 -51.79453297 46.95589912 -49.75 41.9375 C-46.34513709 37.84112721 -42.85435973 35.8920187 -38.1628418 33.65258789 C-26.5970816 27.97522439 -21.80838342 20.95314239 -16.29296875 9.53515625 C-12.89442913 2.74208946 -7.75151084 -0.46942379 0 0 Z M-1.75 27.9375 C-2.60181571 29.3883482 -3.44963927 30.84170232 -4.27612305 32.30712891 C-7.84933518 38.57477025 -11.08998767 42.85600176 -17.75 45.9375 C-19.44403834 46.89039657 -21.12501495 47.87110356 -22.75 48.9375 C-22.75 49.5975 -22.75 50.2575 -22.75 50.9375 C-20.77447008 52.08487332 -18.76799983 53.17908418 -16.75 54.25 C-9.10374401 58.56857364 -5.66111013 64.18617599 -1.75 71.9375 C0.80724809 68.90708126 2.65621462 66.20341029 4.1875 62.5625 C7.53698153 56.19421824 13.96986707 53.79712129 20.25 50.9375 C20.25 50.2775 20.25 49.6175 20.25 48.9375 C19.404375 48.59460938 18.55875 48.25171875 17.6875 47.8984375 C7.72195686 43.30069828 3.77506735 37.7942177 -0.75 27.9375 C-1.08 27.9375 -1.41 27.9375 -1.75 27.9375 Z " fill="#000000" transform="translate(66.75,353.0625)"/>
<path d="M0 0 C8.95646829 3.88676926 13.95367703 15.60603214 18 24 C18 24.66 18 25.32 18 26 C18.6703125 26.25136719 19.340625 26.50273437 20.03125 26.76171875 C23.62900652 28.26236193 27.05154135 29.99949847 30.5 31.8125 C31.15097656 32.14314453 31.80195313 32.47378906 32.47265625 32.81445312 C37.27517402 35.34183874 41.59373472 38.0809342 44.03125 43.140625 C45.31029763 48.89633935 45.14997571 53.86253961 42 59 C38.23496925 62.66372948 34.79499552 64.62790128 29.9855957 66.62402344 C19.16374215 71.2975663 15.23421926 78.00832386 10.39453125 88.453125 C7.98679959 93.49555921 5.05875592 96.47062204 0 99 C-2.13671875 99.23828125 -2.13671875 99.23828125 -4.6875 99.3125 C-5.93080078 99.36857422 -5.93080078 99.36857422 -7.19921875 99.42578125 C-11.03167918 98.84316174 -13.99916218 97.39159451 -17 95 C-18.63202364 92.7072609 -19.88255884 90.7242176 -21.125 88.25 C-22.07245516 86.45816012 -23.02572677 84.66997023 -23.98925781 82.88671875 C-24.68430111 81.58930459 -25.35431167 80.27826679 -26.00292969 78.95703125 C-29.3475692 72.75435184 -33.76095174 70.45676635 -40 67.5 C-46.91422633 64.22325796 -52.05839165 61.38870753 -55 54 C-55.90055584 48.76853086 -55.51324673 44.18448366 -52.5078125 39.61328125 C-48.65630753 35.49237049 -43.20880099 32.92351999 -38.06640625 30.7734375 C-29.14876735 26.6219229 -25.97149163 20.76156249 -21.74047852 12.10888672 C-16.70116907 1.81677888 -11.37299281 -1.09696952 0 0 Z M-6 27 C-6.62261719 28.37671875 -6.62261719 28.37671875 -7.2578125 29.78125 C-12.20717972 39.89769047 -17.82330243 44.39761711 -28 49 C-25.17260724 51.23455234 -22.31381575 52.89855408 -19.125 54.5625 C-14.19526675 57.45935356 -11.87217879 60.61510811 -9.25390625 65.6328125 C-8.0232454 67.95611616 -6.62745922 69.94076588 -5 72 C-4.58492188 71.0821875 -4.16984375 70.164375 -3.7421875 69.21875 C1.20717972 59.10230953 6.82330243 54.60238289 17 50 C14.58310397 47.21374445 12.16723788 46.14011569 8.8125 44.6875 C1.33789191 40.80110138 -1.50246641 34.31575794 -5 27 C-5.33 27 -5.66 27 -6 27 Z " fill="#000000" transform="translate(452,402)"/>
<path d="M0 0 C7.19168849 3.59584424 10.65235178 9.81865682 14.25 16.6875 C14.61351562 17.36361328 14.97703125 18.03972656 15.3515625 18.73632812 C18 23.73948543 18 23.73948543 18 26 C19.00740234 26.38091797 19.00740234 26.38091797 20.03515625 26.76953125 C29.15844495 30.55587636 38.39437552 34.59156328 44 43 C45.64216742 47.92650227 45.58729125 52.25350455 43.625 57.0625 C40.37564914 62.97041065 34.14269673 65.71242614 28.1015625 68.1875 C18.98042814 72.4009374 15.64779754 78.73167544 11.27197266 87.53540039 C8.27978245 93.42433026 6.22010684 96.5049289 0 99 C-2.625 99.53125 -2.625 99.53125 -5 99.5 C-5.78375 99.5103125 -6.5675 99.520625 -7.375 99.53125 C-12.22458607 98.54978615 -15.69083284 96.94730392 -18.45751953 92.83203125 C-19.88695916 90.1652506 -21.22962942 87.46624993 -22.5625 84.75 C-27.88138528 74.66563947 -32.5379392 70.37828335 -43 66 C-48.47270554 63.22128883 -51.93493005 60.82552095 -54.37890625 55.046875 C-55.73295586 50.5844725 -55.43763332 47.21564811 -53.875 42.875 C-49.94492171 36.84887996 -43.91552764 33.58079864 -37.75 30.1875 C-37.03070313 29.78080078 -36.31140625 29.37410156 -35.5703125 28.95507812 C-30.26607143 26 -30.26607143 26 -28 26 C-27.74734375 25.15566406 -27.4946875 24.31132813 -27.234375 23.44140625 C-25.90027149 19.72195943 -24.19388146 16.36155074 -22.25 12.9375 C-21.92773438 12.33873047 -21.60546875 11.73996094 -21.2734375 11.12304688 C-16.30150941 2.32581752 -10.06778929 -1.11520128 0 0 Z M-6 28 C-7.82842605 30.63670716 -7.82842605 30.63670716 -9.625 33.875 C-10.25664062 34.96554688 -10.88828125 36.05609375 -11.5390625 37.1796875 C-13.15331938 39.76660685 -13.15331938 39.76660685 -13 42 C-13.639375 42.226875 -14.27875 42.45375 -14.9375 42.6875 C-19.13320261 44.48565826 -23.03900556 46.73904021 -27 49 C-24.65276537 51.61570918 -22.21602544 53.04803514 -19.125 54.6875 C-14.01691272 57.67651177 -11.61318205 60.78434566 -9 66 C-8.04710343 67.69403834 -7.06639644 69.37501495 -6 71 C-5.34 71 -4.68 71 -4 71 C-2.92318169 69.15658251 -1.91435412 67.27328389 -0.9375 65.375 C2.49085928 59.29843 5.91974042 56.23901679 12 53 C13.010625 52.38125 14.02125 51.7625 15.0625 51.125 C16.0215625 50.568125 16.0215625 50.568125 17 50 C14.72402354 47.50447597 12.39278822 45.93377014 9.4375 44.3125 C8.65246094 43.87550781 7.86742187 43.43851563 7.05859375 42.98828125 C5.0800895 41.85573777 5.0800895 41.85573777 3 42 C2.773125 41.360625 2.54625 40.72125 2.3125 40.0625 C0.51434174 35.86679739 -1.73904021 31.96099444 -4 28 C-4.66 28 -5.32 28 -6 28 Z " fill="#000000" transform="translate(261,11)"/>
<path d="M0 0 C2.46810594 2.1516821 3.74159986 3.68402403 4.37890625 6.9296875 C4.60432912 10.78369142 4.24527155 12.61574124 2.125 15.9375 C-0.73222306 18.71068709 -2.42300746 19.20503898 -6.3125 19.375 C-9.89944824 19.31723916 -10.88749122 19.07500585 -14 17 C-16.46883806 13.29674291 -17.4354365 10.45016105 -17 6 C-15.22700797 2.17033721 -13.91109287 0.4859162 -10.1875 -1.5 C-6.12765138 -2.136839 -3.77517685 -1.60794569 0 0 Z " fill="#000000" transform="translate(327,376)"/>
</svg>
