<?xml version="1.0" encoding="UTF-8"?>
<svg version="1.1" xmlns="http://www.w3.org/2000/svg" width="512" height="512">
<path d="M0 0 C1.00363586 -0.01561478 2.00727173 -0.03122955 3.0413208 -0.0473175 C4.68402954 -0.04224182 4.68402954 -0.04224182 6.35992432 -0.0370636 C7.51808655 -0.04889175 8.67624878 -0.06071991 9.86950684 -0.07290649 C13.70537161 -0.10585401 17.5405288 -0.10875025 21.37652588 -0.1085968 C23.36838445 -0.11630237 25.36024324 -0.12401594 27.3520968 -0.13292438 C33.61778948 -0.16029828 39.88324697 -0.16562817 46.14898682 -0.15815735 C52.59998615 -0.15092527 59.04989025 -0.18428221 65.50065207 -0.23721474 C71.04821856 -0.28108313 76.59543247 -0.29770351 82.14316964 -0.29317886 C85.45253506 -0.29086263 88.76082175 -0.30223345 92.07006073 -0.3342495 C95.76652898 -0.36624704 99.46032406 -0.35365889 103.15679932 -0.33003235 C104.78736267 -0.35835648 104.78736267 -0.35835648 106.4508667 -0.38725281 C113.08671 -0.28654112 116.57130087 0.86743077 121.26264 5.61805058 C121.84162859 6.24837413 122.42061718 6.87869768 123.01715088 7.52812195 C124.07806994 8.55514571 125.14293398 9.57811523 126.21232605 10.59631348 C127.2525436 11.63073398 128.29018921 12.66774605 129.32550049 13.70707703 C130.18803436 14.56698242 130.18803436 14.56698242 131.06799316 15.44425964 C132.93765616 17.30957775 134.80370456 19.17846183 136.66949463 21.0476532 C137.97831383 22.3557978 139.28728136 23.663794 140.59638977 24.97164917 C143.32363772 27.69743063 146.04908805 30.42499323 148.77325439 33.15385437 C152.2692429 36.65557366 155.76974784 40.15273844 159.2715826 43.64861012 C161.96789483 46.34131731 164.6618314 49.03639104 167.35504341 51.73219872 C168.64574303 53.023566 169.93718752 54.31418923 171.22938347 55.60405922 C173.02686932 57.39901586 174.8211363 59.19712844 176.61456299 60.99613953 C177.15009293 61.52964523 177.68562286 62.06315094 178.23738098 62.61282349 C181.53352284 65.92808014 182.86919626 67.45545097 183.51715088 72.15312195 C183.32409172 80.16908063 174.78296668 85.76078358 169.35699463 90.93437195 C167.51874084 92.69839542 165.68096082 94.4629099 163.84356689 96.22782898 C162.57582051 97.43609598 161.30027777 98.63623125 160.01739502 99.82841492 C158.14873014 101.56996782 156.3138298 103.34172408 154.48199463 105.12187195 C153.9030394 105.64607727 153.32408417 106.17028259 152.72758484 106.71037292 C150.8985195 108.41800334 150.8985195 108.41800334 149.01715088 111.52812195 C149.15862853 114.40135125 150.04641039 116.8404461 151.01715088 119.52812195 C151.37543741 122.47058769 151.39853403 125.37756452 151.39215088 128.34062195 C151.39053955 129.12598328 151.38892822 129.9113446 151.38726807 130.72050476 C151.19637914 139.81954372 148.50408259 147.27753361 143.01715088 154.52812195 C143.57402588 154.77562195 144.13090088 155.02312195 144.70465088 155.27812195 C153.63673167 160.10627373 160.55499687 170.06902261 164.01715088 179.52812195 C165.47824607 184.4999042 166.78514978 189.4952664 168.01715088 194.52812195 C168.52165771 194.0183783 169.02616455 193.50863464 169.54595947 192.98344421 C171.82542122 190.683241 174.10872849 188.38689318 176.39215088 186.09062195 C177.18621338 185.28818054 177.98027588 184.48573914 178.79840088 183.65898132 C179.55894775 182.89521179 180.31949463 182.13144226 181.10308838 181.3445282 C181.80482178 180.63755798 182.50655518 179.93058777 183.22955322 179.20219421 C186.18970331 176.43003509 188.78319484 175.98380219 192.84381104 176.08061218 C201.55700497 177.87473535 210.84537125 191.2509265 217.01715088 197.46562195 C218.28123938 198.73473568 219.54556044 200.00361783 220.81011963 201.27226257 C223.88181812 204.35488515 226.95035096 207.44062622 230.01715088 210.52812195 C232.969802 209.19817812 235.04065304 207.75032878 237.31695557 205.45536804 C237.93729675 204.83487579 238.55763794 204.21438354 239.19677734 203.5750885 C239.85421936 202.90732391 240.51166138 202.23955933 241.18902588 201.55155945 C241.87144348 200.86631195 242.55386108 200.18106445 243.25695801 199.47505188 C245.43176686 197.28906349 247.5995116 195.09621766 249.76715088 192.90312195 C251.24195078 191.4182894 252.71720594 189.93390889 254.19293213 188.44999695 C257.80630536 184.81459285 261.41335941 181.17302371 265.01715088 177.52812195 C264.44974182 177.52447632 263.88233276 177.52083069 263.29772949 177.51707458 C257.39258856 177.47526749 251.48822618 177.40593509 245.58355713 177.32060242 C243.37986029 177.29237485 241.17606187 177.27116925 238.972229 177.25712585 C235.80438156 177.23572148 232.6377578 177.18908296 229.47027588 177.13749695 C228.48472717 177.13626831 227.49917847 177.13503967 226.48376465 177.1337738 C219.68285268 176.98811118 219.68285268 176.98811118 216.40679932 174.72441101 C214.71264125 172.0468555 214.26702058 169.79518277 214.46180725 166.63201904 C216.75676097 157.93767877 229.25381537 149.14721226 235.53668213 142.8757782 C236.84482673 141.566959 238.15282293 140.25799147 239.4606781 138.94888306 C242.18645956 136.2216351 244.91402216 133.49618478 247.6428833 130.77201843 C251.1446026 127.27602993 254.64176737 123.77552499 258.13763905 120.27369022 C260.83034624 117.577378 263.52541997 114.88344142 266.22122765 112.19022942 C267.51259493 110.8995298 268.80321816 109.60808531 270.09308815 108.31588936 C271.88804479 106.51840351 273.68615737 104.72413653 275.48516846 102.93070984 C276.01867416 102.3951799 276.55217987 101.85964996 277.10185242 101.30789185 C281.8693672 96.56786515 281.8693672 96.56786515 285.83746338 96.4304657 C286.92801025 96.44206726 288.01855713 96.45366882 289.14215088 96.46562195 C290.237854 96.47464539 291.33355713 96.48366882 292.46246338 96.4929657 C293.30551025 96.50456726 294.14855713 96.51616882 295.01715088 96.52812195 C294.98049316 95.23712585 294.94383545 93.94612976 294.90606689 92.61601257 C294.77883078 87.80060645 294.69881226 82.98534709 294.63262939 78.16874695 C294.5975477 76.08906523 294.54986774 74.00955468 294.48907471 71.9304657 C294.40361104 68.93133744 294.36434028 65.93450075 294.33355713 62.93437195 C294.29742813 62.01321594 294.26129913 61.09205994 294.22407532 60.14299011 C294.22038649 54.00112911 295.54105144 50.91842157 299.86329651 46.57167053 C300.57406845 45.8972995 301.28484039 45.22292847 302.01715088 44.52812195 C303.5887076 42.91637199 305.15868083 41.30307702 306.72735596 39.68852234 C308.49443655 37.91491865 310.26434092 36.14412503 312.03668213 34.3757782 C312.98610245 33.4256826 313.93537442 32.47543874 314.88450623 31.52505493 C316.85703585 29.55106318 318.83133227 27.57886109 320.8069458 25.60795593 C323.34012749 23.08051795 325.86872915 20.54855245 328.3960619 18.01526737 C330.34759896 16.0601244 332.3015018 14.10735976 334.25613976 12.15531731 C335.64346953 10.7689778 337.02878753 9.38062604 338.41407776 7.99224854 C339.25222519 7.15725327 340.09037262 6.322258 340.95391846 5.46195984 C342.06142204 4.35564964 342.06142204 4.35564964 343.19129944 3.22698975 C346.10369986 0.51713988 347.90629149 0.39983911 351.78640747 0.38095093 C352.79307465 0.37379562 353.79974182 0.36664032 354.83691406 0.35926819 C355.94552795 0.35657928 357.05414185 0.35389038 358.1963501 0.35112 C359.36064545 0.3445488 360.5249408 0.3379776 361.72451782 0.33120728 C365.59029193 0.31144178 369.45602717 0.29980562 373.32183838 0.2898407 C374.63891911 0.28576517 375.95599983 0.28168964 377.3129921 0.27749062 C383.56217628 0.25843993 389.81134865 0.24420783 396.06055629 0.23587865 C403.27695914 0.22610175 410.49305561 0.19977037 417.70935047 0.15937775 C423.28563063 0.12923467 428.86182288 0.11441157 434.43818295 0.11109763 C437.76956295 0.10874528 441.10054027 0.09779609 444.43185043 0.07463646 C448.14787227 0.05040421 451.86308669 0.05118114 455.5791626 0.05815125 C456.68372803 0.04534119 457.78829346 0.03253113 458.92633057 0.01933289 C460.4447908 0.02974861 460.4447908 0.02974861 461.993927 0.04037476 C462.87256346 0.0379864 463.75119991 0.03559805 464.65646172 0.03313732 C467.83605662 0.69982848 469.03419479 2.00270582 471.01715088 4.52812195 C471.41197994 7.2419194 471.56491588 9.55063405 471.534729 12.26249695 C471.54524292 13.42416382 471.54524292 13.42416382 471.55596924 14.60929871 C471.57355587 17.16593927 471.56192477 19.72147039 471.54840088 22.27812195 C471.55109562 24.05644442 471.55497789 25.83476546 471.55999756 27.61308289 C471.56589349 31.33881162 471.55732674 35.06415659 471.53863525 38.7898407 C471.51584547 43.56511482 471.52896807 48.33948971 471.55292511 53.11473083 C471.56738063 56.78649163 471.56277827 60.4580393 471.55241394 64.12980652 C471.54974596 65.89046841 471.55301892 67.65114966 471.56233215 69.41178894 C471.57249396 71.87296282 471.55700341 74.33268145 471.534729 76.79374695 C471.54687439 77.88483765 471.54687439 77.88483765 471.55926514 78.99797058 C471.50261354 82.37744039 471.22386929 84.24408824 469.21292114 87.00715637 C465.87176852 89.32150511 462.76602605 88.55805966 458.93121338 88.08280945 C438.2613246 86.15756088 438.2613246 86.15756088 419.90835571 94.31248474 C411.36405044 101.83136019 403.97102351 110.543366 397.01715088 119.52812195 C398.4497386 122.80008647 400.20540404 124.96016151 402.73248291 127.47050476 C403.49312042 128.23099121 404.25375793 128.99147766 405.03744507 129.77500916 C405.85832611 130.58556763 406.67920715 131.3961261 407.52496338 132.23124695 C408.7858931 133.48793182 408.7858931 133.48793182 410.07229614 134.77000427 C412.75759088 137.44410626 415.44975743 140.11116919 418.14215088 142.77812195 C419.96422243 144.59016256 421.78584265 146.40265713 423.60699463 148.21562195 C428.0718234 152.65840231 432.54231371 157.0954236 437.01715088 161.52812195 C435.32128962 165.16115279 433.279146 167.4736124 430.39215088 170.27812195 C429.16625244 171.47695007 429.16625244 171.47695007 427.91558838 172.69999695 C427.289104 173.3032782 426.66261963 173.90655945 426.01715088 174.52812195 C422.12319972 172.94412606 419.50562853 170.28615252 416.60601807 167.34403992 C416.07874115 166.81705505 415.55146423 166.29007019 415.00820923 165.74711609 C413.27203016 164.00954719 411.54303687 162.26500881 409.81402588 160.52030945 C408.60948651 159.31203873 407.40450391 158.10420973 406.19909668 156.89680481 C403.03166981 153.72175118 399.87029575 150.54073673 396.71014404 147.35844421 C393.48277999 144.11060119 390.2497286 140.86843062 387.01715088 137.6257782 C380.67823785 131.26543213 374.34570464 124.89877442 368.01715088 118.52812195 C364.09077941 120.11768414 361.46209434 122.82056434 358.54595947 125.78813171 C358.01214157 126.32326385 357.47832367 126.858396 356.92832947 127.40974426 C355.16943544 129.17511614 353.41762373 130.94735159 351.66558838 132.7195282 C350.44349291 133.94789522 349.2208801 135.17574774 347.99777222 136.40310669 C344.78196546 139.63220717 341.57177571 142.86682964 338.36315918 146.10307312 C333.22140917 151.28797225 328.07289762 156.46613617 322.92116165 161.64111137 C321.12063386 163.45188289 319.32354537 165.26601736 317.52676392 167.08050537 C316.42780847 168.18628657 315.32874419 169.29195963 314.22955322 170.39750671 C313.72873734 170.90505997 313.22792145 171.41261322 312.71192932 171.93554688 C308.41032538 176.25133198 306.33991097 176.66568783 300.25933838 176.8445282 C299.59628693 176.8653093 298.93323547 176.88609039 298.25009155 176.90750122 C296.13088393 176.97291426 294.01155188 177.031843 291.89215088 177.09062195 C290.45594007 177.13381504 289.01974186 177.17742959 287.58355713 177.22148132 C284.06155494 177.32858694 280.53941263 177.4298777 277.01715088 177.52812195 C277.82925522 178.33800568 278.64135956 179.1478894 279.47807312 179.98231506 C287.118048 187.60204889 294.75540432 195.22439858 302.39018154 202.84934044 C306.31570428 206.76963681 310.24215504 210.68899435 314.17071533 214.60624695 C317.95947099 218.38416502 321.74580348 222.16449585 325.53044319 225.94653702 C326.97730911 227.39155026 328.42505719 228.83568075 329.87368584 230.27892685 C331.89705152 232.2950706 333.91730373 234.31428436 335.93682861 236.33427429 C336.54103134 236.93488174 337.14523407 237.5354892 337.76774597 238.15429688 C341.80211945 242.19878519 343.12931521 243.87425756 343.14157104 249.60002136 C343.13797577 250.30348694 343.13438049 251.00695251 343.13067627 251.73173523 C343.1308223 252.47329865 343.13096832 253.21486206 343.13111877 253.97889709 C343.13042088 256.43543908 343.12263421 258.89190568 343.11480713 261.34843445 C343.11294251 263.04951435 343.11151882 264.75059479 343.11051941 266.45167542 C343.10669766 270.93318662 343.09687028 275.41466552 343.08581543 279.89616394 C343.07559396 284.46748925 343.07102021 289.03881976 343.065979 293.6101532 C343.05524773 302.58282366 343.03817539 311.55547012 343.01715088 320.52812195 C343.65252651 320.52443478 344.28790215 320.5207476 344.94253159 320.5169487 C360.39921349 320.42862969 375.85580769 320.3624281 391.31267929 320.32087326 C398.78750416 320.30024374 406.26216065 320.27211594 413.73687744 320.22636414 C420.25148958 320.18650801 426.76597979 320.16069196 433.28071046 320.15176797 C436.73060592 320.14655104 440.18015252 320.13428201 443.62993622 320.10520172 C447.48010317 320.07300931 451.32992814 320.07216176 455.18023682 320.07402039 C456.32534729 320.05963928 457.47045776 320.04525818 458.65026855 320.03044128 C459.69912231 320.03593994 460.74797607 320.0414386 461.82861328 320.04710388 C462.73934475 320.04341671 463.65007622 320.03972954 464.58840561 320.03593063 C467.78419646 320.68356566 468.98544217 322.03739153 471.01715088 324.52812195 C471.52508545 326.5007782 471.52508545 326.5007782 471.534729 328.59062195 C471.55364197 329.77204773 471.55364197 329.77204773 471.57293701 330.9773407 C471.56079163 332.23997742 471.56079163 332.23997742 471.54840088 333.52812195 C471.55222778 334.40081726 471.55605469 335.27351257 471.55999756 336.1726532 C471.56271578 338.01511287 471.55536082 339.85761119 471.53863525 341.69999695 C471.51722336 344.51858129 471.53843889 347.33461679 471.56402588 350.15312195 C471.56138259 351.94479424 471.55625757 353.73646494 471.54840088 355.52812195 C471.5564978 356.36987976 471.56459473 357.21163757 471.57293701 358.0789032 C471.55402405 359.26032898 471.55402405 359.26032898 471.534729 360.46562195 C471.53154663 361.15527039 471.52836426 361.84491882 471.52508545 362.5554657 C470.75485415 365.54679898 469.44648797 366.63441224 467.01715088 368.52812195 C464.31697064 368.92447352 462.02209244 369.07589067 459.32299805 369.04710388 C458.5437054 369.05460513 457.76441275 369.06210639 456.96150517 369.06983495 C454.34794812 369.09014901 451.73525555 369.08200242 449.12164307 369.07402039 C447.24914693 369.0827534 445.37665826 369.09323822 443.50418091 369.10534668 C438.41774401 369.13326062 433.33154996 369.13661017 428.24504757 369.13562679 C422.93052132 369.13875126 417.6161052 369.16435973 412.30163574 369.18760681 C402.23655253 369.22820611 392.17153416 369.24851677 382.10638165 369.26158071 C370.64816567 369.27743744 359.19006025 369.31584747 347.73190832 369.35617399 C324.16035959 369.43862672 300.58881385 369.49268526 277.01715088 369.52812195 C280.91479044 373.81324193 284.86398636 378.04130994 288.86636353 382.22877502 C290.21578609 383.6554464 291.55089951 385.09581122 292.87014771 386.5504303 C300.62180312 395.07567325 306.639544 400.90300238 318.4872036 401.72906303 C324.38893047 401.8924683 330.2700306 401.33657475 336.10162354 400.45829773 C339.01715088 400.52812195 339.01715088 400.52812195 341.16702271 402.09498596 C343.65437134 405.36614174 343.52438943 407.44045676 343.534729 411.52812195 C343.54524292 412.57274597 343.54524292 412.57274597 343.55596924 413.63847351 C343.57354284 415.93543126 343.56193007 418.23115216 343.54840088 420.52812195 C343.55109601 422.12708268 343.55497861 423.72604182 343.55999756 425.32499695 C343.5658917 428.67411421 343.5573328 432.02280438 343.53863525 435.37187195 C343.51584523 439.66290786 343.52896884 443.95294306 343.55292511 448.24394226 C343.56738568 451.54512561 343.56277603 454.84607205 343.55241394 458.14726257 C343.54974734 459.72929503 343.5530141 461.31134906 343.56233215 462.89335632 C343.57250267 465.10552357 343.55699278 467.31607495 343.534729 469.52812195 C343.53154663 470.78624695 343.52836426 472.04437195 343.52508545 473.34062195 C342.91218931 477.18679932 342.0078998 478.12234706 339.01715088 480.52812195 C336.67322159 481.03986645 336.67322159 481.03986645 334.03430176 481.0562439 C333.03066589 481.07185867 332.02703003 481.08747345 330.99298096 481.1035614 C329.35027222 481.09848572 329.35027222 481.09848572 327.67437744 481.0933075 C326.51621521 481.10513565 325.35805298 481.11696381 324.16479492 481.12915039 C320.32893015 481.16209791 316.49377296 481.16499415 312.65777588 481.1648407 C310.6659173 481.17254627 308.67405852 481.18025984 306.68220496 481.18916827 C300.41651228 481.21654218 294.15105478 481.22187206 287.88531494 481.21440125 C281.43431561 481.20716917 274.98441151 481.2405261 268.53364968 481.29345864 C262.9860832 481.33732702 257.43886929 481.35394741 251.89113212 481.34942275 C248.5817667 481.34710653 245.27348001 481.35847735 241.96424103 481.39049339 C238.26777278 481.42249093 234.57397769 481.40990279 230.87750244 481.38627625 C229.79046021 481.405159 228.70341797 481.42404175 227.58343506 481.4434967 C220.94759176 481.34278502 217.46300089 480.18881313 212.77166176 475.43819332 C212.19267317 474.80786977 211.61368458 474.17754622 211.01715088 473.52812195 C209.95623181 472.50109819 208.89136778 471.47812867 207.82197571 470.45993042 C206.78175816 469.42550992 205.74411255 468.38849785 204.70880127 467.34916687 C203.8462674 466.48926147 203.8462674 466.48926147 202.96630859 465.61198425 C201.0966456 463.74666615 199.2305972 461.87778207 197.36480713 460.0085907 C196.05598793 458.7004461 194.7470204 457.3924499 193.43791199 456.08459473 C190.71066404 453.35881326 187.98521371 450.63125067 185.26104736 447.90238953 C181.76505886 444.40067023 178.26455392 440.90350546 174.76271915 437.40763378 C172.06640693 434.71492659 169.37247035 432.01985286 166.67925835 429.32404518 C165.38855873 428.0326779 164.09711424 426.74205466 162.80491829 425.45218468 C161.00743244 423.65722804 159.21316546 421.85911546 157.41973877 420.06010437 C156.88420883 419.52659866 156.34867889 418.99309296 155.79692078 418.44342041 C152.28444244 414.91057271 150.88946332 413.218768 150.90362549 408.26200867 C150.90370102 407.38124664 150.90377655 406.50048462 150.90385437 405.59303284 C150.90901566 404.64090912 150.91417694 403.6887854 150.91949463 402.70780945 C150.92161705 401.24711533 150.92161705 401.24711533 150.92378235 399.75691223 C150.92939115 396.63895122 150.94194514 393.52106135 150.95465088 390.40312195 C150.95966475 388.2924459 150.96422785 386.18176873 150.96832275 384.0710907 C150.97936343 378.89007673 150.99611015 373.70910442 151.01715088 368.52812195 C150.21685581 368.53180912 149.41656075 368.53549629 148.59201431 368.5392952 C129.12964098 368.62758734 109.66730755 368.69380285 90.20477676 368.73537064 C80.79287784 368.75600622 71.3811125 368.78414579 61.96929932 368.82987976 C53.76708061 368.8697171 45.56495863 368.89554752 37.36264586 368.90447593 C33.01852048 368.90969596 28.67467185 368.92198542 24.33063507 368.95104218 C20.24305573 368.97816238 16.15586755 368.98657391 12.06820679 368.98055267 C10.56696193 368.98165444 9.06570419 368.98962881 7.56453705 369.00494385 C5.51663136 369.0248145 3.46851649 369.01768345 1.42053223 369.00914001 C0.27382175 369.01282719 -0.87288872 369.01651436 -2.05434799 369.02031326 C-5.61987659 368.42105715 -6.78871167 367.34315798 -8.98284912 364.52812195 C-9.49078369 362.5554657 -9.49078369 362.5554657 -9.50042725 360.46562195 C-9.51934021 359.28419617 -9.51934021 359.28419617 -9.53863525 358.0789032 C-9.53053833 357.23714539 -9.52244141 356.39538757 -9.51409912 355.52812195 C-9.51792603 354.65542664 -9.52175293 353.78273132 -9.5256958 352.8835907 C-9.52841402 351.04113103 -9.52105907 349.19863271 -9.5043335 347.35624695 C-9.4829216 344.53766261 -9.50413713 341.7216271 -9.52972412 338.90312195 C-9.52708083 337.11144966 -9.52195581 335.31977896 -9.51409912 333.52812195 C-9.52624451 332.26548523 -9.52624451 332.26548523 -9.53863525 330.9773407 C-9.52602661 330.18972351 -9.51341797 329.40210632 -9.50042725 328.59062195 C-9.49724487 327.90097351 -9.4940625 327.21132507 -9.49078369 326.5007782 C-8.74407456 323.60079752 -7.26243003 322.42411802 -4.98284912 320.52812195 C-2.55410385 320.03593063 -2.55410385 320.03593063 0.20568848 320.04710388 C1.77896912 320.0388559 1.77896912 320.0388559 3.3840332 320.03044128 C4.52914368 320.04482239 5.67425415 320.05920349 6.85406494 320.07402039 C8.0640918 320.07343628 9.27411865 320.07285217 10.52081299 320.07225037 C13.83491155 320.07455893 17.14801217 320.09461117 20.46193409 320.1225462 C23.92657847 320.14755971 27.39123629 320.14990179 30.85595703 320.15464783 C37.41498907 320.16707783 43.97375427 320.1998995 50.53266883 320.24004579 C58.00053824 320.28476296 65.46842043 320.30675035 72.9363904 320.32682753 C88.29682471 320.36863239 103.65689148 320.4419847 119.01715088 320.52812195 C119.01715088 307.32812195 119.01715088 294.12812195 119.01715088 280.52812195 C109.98199811 280.68612489 109.98199811 280.68612489 100.94781494 280.88847351 C99.82085205 280.89846375 98.69388916 280.90845398 97.53277588 280.91874695 C96.38067627 280.93969421 95.22857666 280.96064148 94.04156494 280.98222351 C91.01715088 280.52812195 91.01715088 280.52812195 88.63433838 278.86991882 C86.59462535 275.91627641 86.55370753 274.23684594 86.62652588 270.66874695 C86.6394165 269.55370789 86.65230713 268.43866882 86.66558838 267.2898407 C86.699104 266.13097351 86.73261963 264.97210632 86.76715088 263.77812195 C86.78519775 262.60378601 86.80324463 261.42945007 86.82183838 260.2195282 C86.86895967 257.32156855 86.93473782 254.42525777 87.01715088 251.52812195 C86.2460498 251.23099304 85.47494873 250.93386414 84.68048096 250.62773132 C72.81253608 245.72781165 64.67221116 235.56001277 59.12261963 224.34062195 C55.98803437 216.36570539 54.48472842 209.23908432 54.57965088 200.65312195 C54.58722412 199.68785583 54.59479736 198.72258972 54.6026001 197.72807312 C54.77177113 190.39629919 55.78654106 184.17937745 59.01715088 177.52812195 C59.46445557 176.57808289 59.91176025 175.62804382 60.37261963 174.6492157 C64.4007016 166.71184237 69.59994801 159.61420391 77.01715088 154.52812195 C77.67715088 154.52812195 78.33715088 154.52812195 79.01715088 154.52812195 C78.607229 153.88745789 78.19730713 153.24679382 77.77496338 152.5867157 C70.66978484 141.18103436 70.66978484 141.18103436 71.26080322 134.96586609 C71.74490655 125.49683565 67.66900284 120.22091596 61.64837646 113.32130432 C59.45878163 110.92973016 57.22068113 108.59731771 54.95465088 106.27812195 C54.19159637 105.48219635 53.42854187 104.68627075 52.6423645 103.8662262 C42.26823235 93.3111851 33.49710906 87.290317 18.44708252 86.93339539 C12.5129128 87.02334875 6.54906785 87.37085726 0.67489624 88.24047852 C-2.57367622 88.6733571 -4.41880594 88.91843086 -7.17366028 87.01211548 C-9.60970552 83.667456 -9.54477704 80.77794685 -9.50042725 76.79374695 C-9.50743652 76.01930237 -9.5144458 75.24485779 -9.52166748 74.44694519 C-9.53925411 71.89030463 -9.52762301 69.33477351 -9.51409912 66.77812195 C-9.51679386 64.99979948 -9.52067613 63.22147844 -9.5256958 61.44316101 C-9.53159173 57.71743227 -9.52302499 53.99208731 -9.5043335 50.2664032 C-9.48154371 45.49112908 -9.49466631 40.71675419 -9.51862335 35.94151306 C-9.53307887 32.26975227 -9.52847651 28.5982046 -9.51811218 24.92643738 C-9.51544421 23.16577549 -9.51871716 21.40509424 -9.5280304 19.64445496 C-9.5381922 17.18328108 -9.52270165 14.72356245 -9.50042725 12.26249695 C-9.50852417 11.53510315 -9.51662109 10.80770935 -9.52496338 10.05827332 C-9.47059682 6.815114 -9.29675787 4.92685712 -7.26253128 2.34292889 C-4.57749731 0.20542991 -3.38828191 0.02102808 0 0 Z M7.01715088 16.52812195 C7.01715088 35.00812195 7.01715088 53.48812195 7.01715088 72.52812195 C18.504509 72.58000925 18.504509 72.58000925 29.99176025 72.55570984 C43.09700939 72.64519234 43.09700939 72.64519234 47.36090088 76.27812195 C48.60614875 77.67155431 49.82107466 79.09226064 51.01715088 80.52812195 C52.51775298 82.05337793 54.04929059 83.54367885 55.5824585 85.03616333 C58.42726041 87.81276194 61.21688963 90.64423718 64.01715088 93.46562195 C65.18488462 94.63838204 66.35285161 95.81090992 67.52105713 96.98320007 C70.35578322 99.82883884 73.18733912 102.67759648 76.01715088 105.52812195 C79.29381165 104.43590169 79.93324319 103.70093341 82.01715088 101.09062195 C83.9814402 98.64037563 85.33785955 97.31431616 88.01715088 95.52812195 C86.70407839 92.61465602 85.30533499 90.58302405 83.01324463 88.36405945 C82.43767822 87.79945007 81.86211182 87.2348407 81.269104 86.65312195 C80.37094971 85.78687195 80.37094971 85.78687195 79.45465088 84.90312195 C78.26365704 83.74652044 77.07475083 82.58776417 75.88824463 81.42655945 C75.36158203 80.91786316 74.83491943 80.40916687 74.29229736 79.88505554 C71.74412553 77.17344554 71.49388429 74.37914755 71.55157471 70.71928406 C72.12660426 68.01299655 73.09669331 66.87025751 74.96636963 64.8445282 C75.91938965 63.80715515 75.91938965 63.80715515 76.8916626 62.74882507 C80.6574777 58.81431392 84.46913647 54.93225854 88.32965088 51.09062195 C89.13982666 50.27657898 89.95000244 49.46253601 90.784729 48.62382507 C91.94585205 47.46463562 91.94585205 47.46463562 93.13043213 46.2820282 C93.82950684 45.58408142 94.52858154 44.88613464 95.24884033 44.16703796 C98.20173219 41.4302213 100.79824352 40.99905644 104.82598877 41.06254578 C107.53227628 41.63757533 108.67501531 42.60766438 110.70074463 44.4773407 C111.39232666 45.11268738 112.08390869 45.74803406 112.79644775 46.40263367 C116.73095891 50.16844876 120.61301429 53.98010754 124.45465088 57.84062195 C125.26869385 58.65079773 126.08273682 59.46097351 126.92144775 60.29570007 C127.69424072 61.0697821 128.46703369 61.84386414 129.26324463 62.6414032 C129.96119141 63.34047791 130.65913818 64.03955261 131.37823486 64.7598114 C134.10656812 67.70355008 134.52736376 70.2841642 134.50543213 74.2976532 C133.54742587 78.67382577 130.14579116 81.50667277 127.01715088 84.52812195 C126.44609619 85.09917664 125.8750415 85.67023132 125.28668213 86.2585907 C124.86773682 86.67753601 124.4487915 87.09648132 124.01715088 87.52812195 C125.390008 90.91072868 126.57421147 92.16317935 129.89215088 93.65312195 C130.57019775 93.96507507 131.24824463 94.2770282 131.94683838 94.59843445 C132.97164307 95.05862976 132.97164307 95.05862976 134.01715088 95.52812195 C135.33715088 96.18812195 136.65715088 96.84812195 138.01715088 97.52812195 C145.93715088 89.60812195 153.85715088 81.68812195 162.01715088 73.52812195 C156.35914793 62.21211606 147.90941866 52.28425094 139.64215088 42.77812195 C139.10103794 42.15418674 138.559925 41.53025154 138.0024147 40.88740921 C123.82984226 24.81738035 109.77262054 15.23489968 88.05773926 13.3874054 C61.04429182 11.71845972 33.8968227 14.02536898 7.01715088 16.52812195 Z M317.29840088 48.34062195 C309.1818239 61.57921402 306.5798886 74.96034327 309.47027588 90.19999695 C309.98074463 92.2882782 310.49121338 94.37655945 311.01715088 96.52812195 C316.29715088 96.52812195 321.57715088 96.52812195 327.01715088 96.52812195 C327.00812744 94.59968445 326.999104 92.67124695 326.98980713 90.68437195 C327.01795533 88.13226813 327.04800327 85.58018477 327.07965088 83.02812195 C327.06869385 81.75968445 327.05773682 80.49124695 327.04644775 79.18437195 C327.23984131 68.57535378 327.23984131 68.57535378 330.99371338 64.2117157 C332.31159419 62.95891334 333.65462341 61.73221599 335.01715088 60.52812195 C336.54069266 58.97337851 338.05732827 57.41184523 339.56793213 55.8445282 C341.15256109 54.25728217 342.73983052 52.67266813 344.32965088 51.09062195 C345.54491455 49.8695575 345.54491455 49.8695575 346.784729 48.62382507 C347.55881104 47.8510321 348.33289307 47.07823914 349.13043213 46.2820282 C349.82950684 45.58408142 350.52858154 44.88613464 351.24884033 44.16703796 C354.20173219 41.4302213 356.79824352 40.99905644 360.82598877 41.06254578 C363.53227628 41.63757533 364.67501531 42.60766438 366.70074463 44.4773407 C367.39232666 45.11268738 368.08390869 45.74803406 368.79644775 46.40263367 C372.73095891 50.16844876 376.61301429 53.98010754 380.45465088 57.84062195 C381.26869385 58.65079773 382.08273682 59.46097351 382.92144775 60.29570007 C383.69424072 61.0697821 384.46703369 61.84386414 385.26324463 62.6414032 C385.96119141 63.34047791 386.65913818 64.03955261 387.37823486 64.7598114 C390.11262011 67.71007989 390.55688029 70.30570411 390.47027588 74.33280945 C389.55235109 78.77999678 386.16689219 81.45673242 383.01715088 84.52812195 C381.96994569 85.58379693 380.92449361 86.64121273 379.88043213 87.69999695 C376.94717651 90.6645499 373.98795549 93.60122085 371.01715088 96.52812195 C372.15217041 97.66314148 372.15217041 97.66314148 373.31011963 98.8210907 C376.21246338 101.72343445 379.11480713 104.6257782 382.01715088 107.52812195 C384.96120425 106.20188952 387.02196982 104.7659854 389.28521729 102.47123718 C390.20604599 101.54534035 390.20604599 101.54534035 391.14547729 100.60073853 C392.12222916 99.60379723 392.12222916 99.60379723 393.11871338 98.5867157 C393.79638763 97.90383987 394.47406189 97.22096405 395.17227173 96.51739502 C397.3337038 94.33816717 399.48832496 92.15236556 401.64215088 89.96562195 C403.80398034 87.77619365 405.96724257 85.58823093 408.13345337 83.40313721 C409.48063718 82.04367634 410.82513909 80.68155164 412.16671753 79.31655884 C412.77429901 78.70244644 413.38188049 78.08833405 414.00787354 77.45561218 C414.54207916 76.91315353 415.07628479 76.37069489 415.62667847 75.8117981 C418.94777743 72.7457786 422.82130238 73.30334787 427.08746338 73.2117157 C427.79314453 73.19306458 428.49882568 73.17441345 429.22589111 73.15519714 C431.86451579 73.08684706 434.50334859 73.02673178 437.14215088 72.96562195 C443.04090088 72.82124695 448.93965088 72.67687195 455.01715088 72.52812195 C455.01715088 54.04812195 455.01715088 35.56812195 455.01715088 16.52812195 C377.21095132 7.18549864 377.21095132 7.18549864 317.29840088 48.34062195 Z M99.63433838 63.71562195 C98.27695557 65.10780945 98.27695557 65.10780945 96.89215088 66.52812195 C95.98207275 67.45624695 95.07199463 68.38437195 94.13433838 69.34062195 C93.4356665 70.06249695 92.73699463 70.78437195 92.01715088 71.52812195 C93.5535894 75.20882082 95.79866033 77.51587399 98.64215088 80.27812195 C99.4594165 81.0773407 100.27668213 81.87655945 101.11871338 82.69999695 C101.74519775 83.3032782 102.37168213 83.90655945 103.01715088 84.52812195 C103.71840088 83.82687195 104.41965088 83.12562195 105.14215088 82.40312195 C108.10048421 79.44478861 111.05881755 76.48645528 114.01715088 73.52812195 C112.5474873 70.12952492 110.63677574 67.87848486 108.01715088 65.27812195 C107.31590088 64.5717157 106.61465088 63.86530945 105.89215088 63.13749695 C102.97165272 60.63073603 102.46285636 61.1189497 99.63433838 63.71562195 Z M348.28448486 69.75688171 C343.75029977 74.53043721 342.11508498 78.14177601 341.96685791 84.73612976 C342.13110365 88.7107344 342.47678597 92.58545949 343.01715088 96.52812195 C345.65715088 96.52812195 348.29715088 96.52812195 351.01715088 96.52812195 C351.5063501 95.0566571 351.5063501 95.0566571 352.00543213 93.5554657 C354.22306687 88.38098463 358.19231056 84.92074245 362.20465088 81.09062195 C362.95424072 80.35907898 363.70383057 79.62753601 364.47613525 78.87382507 C366.31434612 77.0824476 368.16124621 75.30113103 370.01715088 73.52812195 C368.42806811 70.16889942 366.66583658 67.90733202 364.01715088 65.27812195 C363.31590088 64.5717157 362.61465088 63.86530945 361.89215088 63.13749695 C357.04885002 58.98033038 351.86384835 66.39643447 348.28448486 69.75688171 Z M92.01715088 114.52812195 C87.5817399 120.76678198 87.04608223 127.03268584 88.01715088 134.52812195 C89.68339071 140.66196731 93.44067918 144.19809814 98.31011963 148.08280945 C100.01715088 149.52812195 100.01715088 149.52812195 101.01715088 151.52812195 C101.48547362 158.90420514 101.48547362 158.90420514 99.82965088 161.1101532 C97.60522839 162.85038027 95.29589723 164.02081231 92.76715088 165.27812195 C83.01571976 170.51999797 76.49734199 178.31609864 72.87261963 188.85624695 C70.21529635 200.26210942 71.29772792 211.6531085 77.33746338 221.73124695 C82.72608222 229.44610015 89.39203192 234.61920576 97.91558838 238.4851532 C100.01715088 239.52812195 100.01715088 239.52812195 102.01715088 241.52812195 C102.33599854 243.86650085 102.33599854 243.86650085 102.43121338 246.75468445 C102.46988525 247.78593445 102.50855713 248.81718445 102.54840088 249.87968445 C102.57933838 250.95991882 102.61027588 252.0401532 102.64215088 253.15312195 C102.68082275 254.2410907 102.71949463 255.32905945 102.75933838 256.44999695 C102.85380934 259.1424194 102.93657669 261.83524779 103.01715088 264.52812195 C108.29715088 264.52812195 113.57715088 264.52812195 119.01715088 264.52812195 C119.00812744 263.17718445 118.999104 261.82624695 118.98980713 260.43437195 C119.01796513 258.63225976 119.04801369 256.83017642 119.07965088 255.02812195 C119.06869385 254.14124695 119.05773682 253.25437195 119.04644775 252.34062195 C119.20462451 246.19432522 120.49035238 242.96408421 124.81329346 238.60087585 C125.54056641 237.91686707 126.26783936 237.23285828 127.01715088 236.52812195 C127.84561523 235.71133972 128.67407959 234.8945575 129.52764893 234.05302429 C133.22880153 230.41051376 136.9559279 226.79681074 140.71832275 223.21757507 C141.62775635 222.32876648 142.53718994 221.43995789 143.47418213 220.5242157 C144.29894043 219.73200623 145.12369873 218.93979675 145.97344971 218.12358093 C151.50953 211.09287139 150.85713883 201.05904816 150.01715088 192.52812195 C147.82160672 181.86592845 140.9801547 172.63361366 132.01715088 166.52812195 C129.39775525 165.12695936 126.76180341 163.83234515 124.05621338 162.60624695 C122.01715088 161.52812195 122.01715088 161.52812195 121.01715088 159.52812195 C120.72901067 156.59869653 120.53101631 154.37863828 121.01715088 151.52812195 C123.14215088 148.96562195 123.14215088 148.96562195 126.01715088 146.52812195 C127.10335465 145.38349156 128.16536374 144.21551388 129.20465088 143.02812195 C129.69320557 142.48155945 130.18176025 141.93499695 130.68511963 141.37187195 C134.8422967 135.61765617 134.71030891 129.35306257 134.01715088 122.52812195 C132.24372655 115.8833928 127.57048618 111.35444236 122.01715088 107.52812195 C111.19388368 102.22259881 99.4507881 105.44256534 92.01715088 114.52812195 Z M264.07965088 135.96562195 C263.30724627 136.8055966 263.30724627 136.8055966 262.51923752 137.66254044 C251.15657648 148.38222594 251.15657648 148.38222594 244.01715088 160.52812195 C275.22907466 166.20854889 275.22907466 166.20854889 304.46333599 157.23943043 C312.40593839 151.37529721 319.29525479 144.3452955 325.95465088 137.09062195 C326.46958729 136.53063885 326.9845237 135.97065575 327.51506424 135.39370346 C338.87772528 124.67401796 338.87772528 124.67401796 346.01715088 112.52812195 C310.28102555 106.14896828 288.44013379 109.42757723 264.07965088 135.96562195 Z M188.18215942 199.11587524 C187.44047516 199.85898453 186.69879089 200.60209381 185.93463135 201.36772156 C185.09391083 202.20536545 184.25319031 203.04300934 183.38699341 203.90603638 C182.47861725 204.82159805 181.57024109 205.73715973 180.63433838 206.6804657 C179.70493439 207.61032791 178.7755304 208.54019012 177.81796265 209.49822998 C175.84950613 211.46825229 173.88446091 213.44159512 171.92193604 215.41752625 C169.40039879 217.95606513 166.87231682 220.48795953 164.34188652 223.01763058 C161.93656751 225.42328613 159.53551353 227.83317368 157.13433838 230.2429657 C156.22191376 231.15650314 155.30948914 232.07004059 154.36941528 233.01126099 C153.53499908 233.85205704 152.70058289 234.69285309 151.84088135 235.55912781 C151.10078827 236.30303268 150.36069519 237.04693756 149.59817505 237.81338501 C147.90417405 239.26192493 147.90417405 239.26192493 148.01715088 240.52812195 C155.57365877 240.9119676 163.12761774 241.17251219 170.69171143 241.35209656 C173.25777057 241.42702387 175.8232003 241.52901546 178.38702393 241.65971375 C194.11246803 242.93162587 194.11246803 242.93162587 208.1416626 237.12236023 C211.93473729 233.59776545 215.045385 229.7591915 218.01715088 225.52812195 C216.20322822 221.61493023 213.67679626 218.89797578 210.64215088 215.88749695 C210.11701904 215.36045166 209.59188721 214.83340637 209.05084229 214.29039001 C207.94376205 213.18195266 206.83416757 212.07602148 205.722229 210.97245789 C204.01608113 209.27705894 202.3209104 207.57120585 200.62652588 205.86405945 C199.54904196 204.78789637 198.47093821 203.71235344 197.39215088 202.63749695 C196.88377686 202.12507446 196.37540283 201.61265198 195.85162354 201.08470154 C192.33003601 197.16847287 192.33003601 197.16847287 188.18215942 199.11587524 Z M242.39215088 220.77812195 C241.74168163 221.37316151 241.09121239 221.96820107 240.42103195 222.58127213 C224.26072773 237.51356245 212.43032544 251.01054812 211.24959564 273.68345261 C211.06853672 279.12840527 211.24528426 284.5300727 211.57965088 289.96562195 C211.62659843 290.73167252 211.67354599 291.49772308 211.7219162 292.2869873 C212.34879756 301.78420384 213.48994909 311.13294743 215.01715088 320.52812195 C222.93715088 320.52812195 230.85715088 320.52812195 239.01715088 320.52812195 C239.0317334 318.24156677 239.04631592 315.9550116 239.06134033 313.59916687 C239.11163749 306.05132429 239.1782237 298.50368907 239.25286579 290.95604992 C239.29762727 286.37909893 239.33687048 281.80223815 239.36358643 277.22514343 C239.38956201 272.80943776 239.42992315 268.39407814 239.48033714 263.9785862 C239.49704488 262.29250194 239.50853478 260.60635778 239.51476479 258.92020226 C239.52436373 256.56151777 239.55237072 254.20372645 239.58477783 251.84526062 C239.58334274 251.14539032 239.58190765 250.44552002 239.58042908 249.72444153 C239.6339447 246.97741385 239.74895004 244.96473798 241.20457458 242.59506226 C243.70815072 241.12137737 245.54988213 241.1470097 248.45074463 241.13993835 C249.56199707 241.13048187 250.67324951 241.12102539 251.81817627 241.11128235 C253.01821289 241.11735504 254.21824951 241.12342773 255.45465088 241.12968445 C256.68626953 241.12681427 257.91788818 241.12394409 259.18682861 241.12098694 C262.46063045 241.11842037 265.73400625 241.13050585 269.00775146 241.14726257 C271.01525473 241.15311642 273.02236457 241.147284 275.02984619 241.13700867 C278.87996783 241.11851215 282.72950522 241.12071202 286.57965088 241.12968445 C288.37970581 241.12057541 288.37970581 241.12057541 290.21612549 241.11128235 C291.88300415 241.12546707 291.88300415 241.12546707 293.58355713 241.13993835 C295.05224243 241.14351852 295.05224243 241.14351852 296.55059814 241.14717102 C299.01715088 241.52812195 299.01715088 241.52812195 300.82972717 242.59506226 C302.6381917 245.53914183 302.45640108 248.49138251 302.44952393 251.84526062 C302.4648114 252.95782478 302.4648114 252.95782478 302.48040771 254.09286499 C302.51059751 256.54401646 302.51981251 258.99477754 302.52886963 261.4460907 C302.54571193 263.14575506 302.56386156 264.84540692 302.58326721 266.54504395 C302.6308223 271.01826576 302.6605959 275.49143695 302.68670654 279.96482849 C302.71648437 284.52964784 302.76302419 289.09429263 302.8081665 293.65898132 C302.8942624 302.61529044 302.96003049 311.57158111 303.01715088 320.52812195 C310.93715088 320.52812195 318.85715088 320.52812195 327.01715088 320.52812195 C328.66999535 310.3600077 329.82458654 300.24647977 330.45465088 289.96562195 C330.5014373 289.2050499 330.54822372 288.44447784 330.59642792 287.66085815 C331.64373265 268.30803972 329.59914241 252.79322213 316.62984657 237.75874519 C311.26119436 231.77813063 305.57007013 226.20089401 299.64215088 220.77812195 C298.98853954 220.17865124 298.33492821 219.57918053 297.66151047 218.96154404 C272.43676166 195.97016894 267.17275729 198.05016892 242.39215088 220.77812195 Z M135.01715088 256.52812195 C135.01715088 277.64812195 135.01715088 298.76812195 135.01715088 320.52812195 C156.13715088 320.52812195 177.25715088 320.52812195 199.01715088 320.52812195 C199.01715088 299.40812195 199.01715088 278.28812195 199.01715088 256.52812195 C177.89715088 256.52812195 156.77715088 256.52812195 135.01715088 256.52812195 Z M255.01715088 256.52812195 C255.01715088 277.64812195 255.01715088 298.76812195 255.01715088 320.52812195 C265.57715088 320.52812195 276.13715088 320.52812195 287.01715088 320.52812195 C287.01715088 299.40812195 287.01715088 278.28812195 287.01715088 256.52812195 C276.45715088 256.52812195 265.89715088 256.52812195 255.01715088 256.52812195 Z M7.01715088 336.52812195 C7.01715088 341.80812195 7.01715088 347.08812195 7.01715088 352.52812195 C28.13715088 352.52812195 49.25715088 352.52812195 71.01715088 352.52812195 C71.01715088 347.24812195 71.01715088 341.96812195 71.01715088 336.52812195 C49.89715088 336.52812195 28.77715088 336.52812195 7.01715088 336.52812195 Z M87.01715088 336.52812195 C87.01715088 341.80812195 87.01715088 347.08812195 87.01715088 352.52812195 C208.45715088 352.52812195 329.89715088 352.52812195 455.01715088 352.52812195 C455.01715088 347.24812195 455.01715088 341.96812195 455.01715088 336.52812195 C333.57715088 336.52812195 212.13715088 336.52812195 87.01715088 336.52812195 Z M199.01715088 368.52812195 C197.20017762 381.47917627 197.20017762 381.47917627 201.92340088 393.08476257 C205.78921435 397.50665257 210.12570598 401.39056659 214.51715088 405.27812195 C216.01518158 406.67561368 217.50872078 408.07793632 218.99761963 409.4851532 C222.62144116 412.89069079 226.29964196 416.22522881 230.01715088 419.52812195 C233.42774491 417.92276908 235.63507572 416.12293294 238.26715088 413.40312195 C238.97355713 412.67866882 239.67996338 411.9542157 240.40777588 411.20780945 C240.93886963 410.65351257 241.46996338 410.0992157 242.01715088 409.52812195 C240.63118221 406.39406527 239.02643932 404.30978013 236.57574463 401.92655945 C235.90994385 401.2717157 235.24414307 400.61687195 234.5581665 399.94218445 C233.51692627 398.93284851 233.51692627 398.93284851 232.45465088 397.90312195 C231.07616551 396.55900325 229.69975687 395.21275042 228.32574463 393.86405945 C227.71529297 393.2715741 227.10484131 392.67908875 226.47589111 392.06864929 C223.82493374 389.26906084 223.50802751 386.57573939 223.52886963 382.75468445 C224.3273426 379.11364768 226.63174448 376.98627016 229.19293213 374.38749695 C231.34027482 372.28057789 231.34027482 372.28057789 234.01715088 368.52812195 C222.46715088 368.52812195 210.91715088 368.52812195 199.01715088 368.52812195 Z M167.01715088 368.52812195 C164.57923714 388.21106763 164.1135441 404.83263891 176.62652588 421.16874695 C180.4463909 425.9718545 184.55319407 430.45005324 188.85240173 434.82589722 C190.13583454 436.13444945 191.40742437 437.45471659 192.66725159 438.78601074 C212.54582942 459.78517723 231.21890117 467.78501392 260.12414551 468.61668396 C282.51990413 468.93691273 304.77163808 466.90214901 327.01715088 464.52812195 C327.01715088 448.68812195 327.01715088 432.84812195 327.01715088 416.52812195 C318.16258879 416.47618293 318.16258879 416.47618293 309.3081665 416.50053406 C308.19119385 416.4774115 307.07422119 416.45428894 305.92340088 416.4304657 C304.79224854 416.42522888 303.66109619 416.41999207 302.4956665 416.41459656 C297.42926927 415.12346178 294.6699275 412.14864178 291.01715088 408.52812195 C290.34172241 407.87445145 289.66629395 407.22078094 288.97039795 406.54730225 C286.82037833 404.4466111 284.69758019 402.32129981 282.57965088 400.1882782 C281.81410889 399.42132126 281.04856689 398.65436432 280.25982666 397.86416626 C277.84321891 395.44201314 275.43013362 393.01638583 273.01715088 390.59062195 C271.36764402 388.93609302 269.71790659 387.28179393 268.06793213 385.62773132 C264.04833717 381.59717993 260.03161919 377.56377922 256.01715088 373.52812195 C252.60655685 375.13347482 250.39922603 376.93331095 247.76715088 379.65312195 C246.7075415 380.73980164 246.7075415 380.73980164 245.62652588 381.84843445 C245.09543213 382.40273132 244.56433838 382.9570282 244.01715088 383.52812195 C245.40311955 386.66217863 247.00786244 388.74646377 249.45855713 391.12968445 C250.12435791 391.7845282 250.79015869 392.43937195 251.47613525 393.11405945 C252.17029541 393.78695007 252.86445557 394.4598407 253.57965088 395.15312195 C254.95813624 396.49724064 256.33454489 397.84349348 257.70855713 399.19218445 C258.31900879 399.7846698 258.92946045 400.37715515 259.55841064 400.9875946 C262.21740067 403.79566608 262.54316072 406.50306495 262.48272705 410.33695984 C261.90769749 413.04324735 260.93760845 414.18598638 259.06793213 416.2117157 C258.11491211 417.24908875 258.11491211 417.24908875 257.14263916 418.30741882 C253.37682406 422.24192998 249.56516529 426.12398536 245.70465088 429.96562195 C244.8944751 430.77966492 244.08429932 431.59370789 243.24957275 432.43241882 C242.08844971 433.59160828 242.08844971 433.59160828 240.90386963 434.7742157 C240.20479492 435.47216248 239.50572021 436.17010925 238.78546143 436.88920593 C235.83350769 439.62515312 233.23904197 440.05312241 229.21321106 439.99862671 C226.47711393 439.41241931 225.30200037 438.39230182 223.25518799 436.50004578 C222.56109833 435.86233246 221.86700867 435.22461914 221.15188599 434.56758118 C217.67196148 431.24297003 214.23183227 427.88545293 210.83355713 424.4773407 C210.09258286 423.73732315 209.35160858 422.9973056 208.58818054 422.23486328 C207.03829228 420.68565035 205.4896453 419.13519468 203.94219971 417.58354187 C201.56532839 415.2012669 199.18310442 412.82443698 196.800354 410.44804382 C195.29026723 408.93729705 193.78049026 407.42624054 192.27105713 405.9148407 C191.55760635 405.20341415 190.84415558 404.49198761 190.10908508 403.75900269 C189.45427658 403.10104202 188.79946808 402.44308136 188.12481689 401.7651825 C187.5471608 401.1867308 186.9695047 400.60827911 186.37434387 400.01229858 C183.5717511 396.94748559 183.82816265 394.24878093 183.70074463 390.20780945 C183.6588501 388.95097351 183.61695557 387.69413757 183.5737915 386.3992157 C183.5344751 385.08050476 183.49515869 383.76179382 183.45465088 382.40312195 C183.41145576 381.06326444 183.36784115 379.72342039 183.3237915 378.3835907 C183.21744178 375.09856575 183.11676771 371.81335796 183.01715088 368.52812195 C177.73715088 368.52812195 172.45715088 368.52812195 167.01715088 368.52812195 Z " fill="#000000" transform="translate(24.98284912109375,15.471878051757813)"/>
</svg>
