<?xml version="1.0" encoding="UTF-8"?>
<svg version="1.1" xmlns="http://www.w3.org/2000/svg" width="512" height="512">
<path d="M0 0 C3.78549527 3.33585378 6.66379071 7.12202705 9.625 11.1875 C24.04158332 30.30490763 45.45254364 42.95709348 69.19537354 46.31002808 C73.64237124 46.80680611 78.10054875 47.1237104 82.56533813 47.41156006 C86.51631449 47.66976242 90.46301375 47.98228829 94.41015625 48.29296875 C95.17118149 48.35228577 95.93220673 48.41160278 96.71629333 48.47271729 C119.80142577 50.31380737 141.571295 55.55427993 158 73 C160.21317283 75.8925058 162.19106715 78.84009199 164 82 C166.48192204 79.66141085 168.41517552 77.1149235 170.4375 74.375 C183.3597716 58.22804496 202.67545425 51.95930541 222.54345703 49.57470703 C232.65269784 48.4908902 242.78149672 47.59509109 252.9140625 46.75976562 C280.12627561 44.4920812 300.88783241 32.95912503 318.76953125 12.65625 C321.50823193 9.39475006 324.15390643 6.07648137 326.72265625 2.6796875 C328 1 328 1 329 0 C336.05202312 -0.69364162 336.05202312 -0.69364162 339.5625 1.875 C342.65031797 8.58764777 339.68369786 17.20109814 338.05053711 24.16577148 C337.85531967 25.02072708 337.66010223 25.87568268 337.45896912 26.75654602 C336.82067504 29.54604282 336.17395883 32.33351528 335.52734375 35.12109375 C335.07974198 37.07245273 334.63277648 39.02395776 334.18641663 40.9756012 C333.01612867 46.0866743 331.83912508 51.19617407 330.66009521 56.30523682 C328.76818408 64.50618178 326.88417257 72.70893286 325.00470161 80.91273689 C324.34738699 83.7757384 323.68573177 86.63771243 323.02366638 89.49961853 C322.62231344 91.24637381 322.22110608 92.99316255 321.82006836 94.73999023 C321.63462463 95.53635895 321.44918091 96.33272766 321.25811768 97.15322876 C320.56919327 100.16810734 320 102.89624549 320 106 C340.45503783 113.12896185 340.45503783 113.12896185 361.46166992 118.3269043 C366.20192571 119.32229547 369.82105002 120.10341392 373 124 C374.25091384 127.68494859 374.94335583 131.42415207 375.625 135.25 C377.3413274 145.43953335 377.3413274 145.43953335 381 155 C384.20894306 156.63456339 384.20894306 156.63456339 387.9375 157.1875 C391.97930542 157.9822609 394.37763108 158.45918956 397.50390625 161.17578125 C399.57501487 165.08547193 399.2400946 166.75641387 398 171 C396.34195965 174.25057229 394.37693012 177.2647681 392.375 180.3125 C391.17649728 182.19719383 389.98132358 184.08400776 388.7890625 185.97265625 C388.16418945 186.96023926 387.53931641 187.94782227 386.89550781 188.96533203 C370.69736886 214.89821034 356.72740137 242.27438551 344.10888672 270.10693359 C342.75940836 273.08115704 341.38384461 276.04165977 340 279 C339.67209473 279.7537793 339.34418945 280.50755859 339.00634766 281.28417969 C337.38160113 284.67099943 336.40441305 285.85659464 332.81640625 287.12890625 C328.02050286 286.96691565 324.3678676 285.67954202 319.9375 283.9375 C279.18187083 268.92781195 236.93101598 266.85091093 194 265 C194.04294189 266.09803955 194.08588379 267.1960791 194.13012695 268.32739258 C194 272 194 272 191.91796875 274.76171875 C181.84413725 282.48903528 168.22355458 283.4848937 156 282 C148.71694797 280.46594201 139.3054261 278.45813915 135 272 C134.92094936 269.66800612 134.91201231 267.33167378 135 265 C69.23972835 267.53932436 69.23972835 267.53932436 6.1965332 285.17163086 C2.31901189 286.72545788 -0.83281829 287.61521067 -5 287 C-8.44181511 284.13723307 -10.10395222 281.1511122 -11.92578125 277.1015625 C-12.46726807 275.91506104 -13.00875488 274.72855957 -13.56665039 273.50610352 C-13.99229782 272.55902023 -13.99229782 272.55902023 -14.42654419 271.59280396 C-15.95465498 268.19870414 -17.51731575 264.82056407 -19.078125 261.44140625 C-19.40039566 260.74250778 -19.72266632 260.04360931 -20.05470276 259.3235321 C-33.7151408 229.79158439 -48.93790344 200.41068995 -67.34375 173.5390625 C-69.29239808 170.55174823 -69.92415288 168.56481455 -70 165 C-69.125 162.3125 -69.125 162.3125 -67 160 C-61.93166167 157.56679375 -56.55018955 156.5904457 -51 156 C-50.87496094 155.33226562 -50.74992187 154.66453125 -50.62109375 153.9765625 C-49.72791357 149.69603862 -48.60548782 145.47573976 -47.51147461 141.24316406 C-46.25111188 136.26974893 -45.34809585 131.34047505 -44.78515625 126.234375 C-43.57750415 122.79767349 -42.14576552 121.87498539 -39 120 C-35.22024313 118.80800223 -31.37558444 118.00473645 -27.5 117.1875 C-17.93240759 115.04968631 -8.70555478 112.45028224 0.53710938 109.18432617 C1.34728516 108.89920166 2.15746094 108.61407715 2.9921875 108.3203125 C3.69714355 108.06523926 4.40209961 107.81016602 5.12841797 107.54736328 C7 107 7 107 10 107 C9.72216171 105.80032089 9.44432343 104.60064178 9.1580658 103.36460876 C6.54007395 92.05302416 3.93511584 80.73850695 1.34285641 69.42099667 C0.00976328 63.60278249 -1.3278839 57.78569464 -2.67602539 51.97094727 C-3.97712322 46.35834024 -5.26614419 40.74308398 -6.54687309 35.12579536 C-7.03736581 32.98423283 -7.53218656 30.84365678 -8.03141975 28.70411491 C-8.73046265 25.70490612 -9.41397049 22.70254415 -10.09399414 19.69897461 C-10.40796143 18.37619255 -10.40796143 18.37619255 -10.72827148 17.02668762 C-11.83663522 12.04520179 -12.21152623 8.06826893 -11 3 C-7.92151183 -0.67050512 -4.56638127 -0.64089562 0 0 Z M12 38 C12.71803452 44.99432586 14.17549113 51.74012006 15.72265625 58.59375 C15.98759384 59.78101685 16.25253143 60.96828369 16.52549744 62.19152832 C17.36767132 65.96181038 18.21500808 69.73091017 19.0625 73.5 C19.63640957 76.0650277 20.20998097 78.63013109 20.78320312 81.1953125 C22.18488764 87.46442335 23.59080625 93.73257308 25 100 C26.4349352 99.52225365 27.86982159 99.04436069 29.3046875 98.56640625 C30.10374512 98.30029541 30.90280273 98.03418457 31.72607422 97.76000977 C33.52753187 97.1579121 35.32668716 96.54892637 37.125 95.9375 C66.82970933 86.25118174 98.86497089 87.78725669 126.98413086 101.8203125 C150.76651257 114.29953771 150.76651257 114.29953771 154 124 C154 127.75338192 153.63053019 129.28975678 151 132 C145.98095225 132.60165241 143.97253776 132.61662068 139.6484375 129.875 C138.54406174 128.93194317 137.45335098 127.97270817 136.375 127 C115.76920128 109.77024557 91.58412618 103.39924677 65 105 C53.71953585 106.05567176 43.42432118 109.76275994 33 114 C12.6811708 122.19622384 -7.87709669 129.17299219 -29 135 C-30.32 140.61 -31.64 146.22 -33 152 C-30.6796875 151.60167969 -28.359375 151.20335937 -25.96875 150.79296875 C2.96921114 145.85658038 2.96921114 145.85658038 16.4375 144.1875 C17.33210938 144.07623779 18.22671875 143.96497559 19.1484375 143.8503418 C30.21653375 142.54068642 41.23406262 141.84572955 52.37890625 141.8671875 C53.51166489 141.86623077 54.64442352 141.86527405 55.81150818 141.86428833 C58.19212907 141.86361295 60.57275187 141.86542201 62.95336914 141.86962891 C66.52950351 141.87495089 70.10551027 141.86967994 73.68164062 141.86328125 C87.15255518 141.85978204 100.55491696 142.15492999 114 143 C105.32801324 133.91565652 89.88688861 131.42193434 77.80322266 130.90625 C75.57614127 130.86616755 73.35239337 130.86242122 71.125 130.875 C69.91638306 130.87463745 69.91638306 130.87463745 68.68334961 130.87426758 C64.3365539 130.89571766 60.02063397 131.0361971 55.68359375 131.33203125 C54.39654541 131.41831787 54.39654541 131.41831787 53.08349609 131.50634766 C51.43550974 131.62476775 49.78850023 131.75794882 48.14306641 131.90771484 C44.84578664 132.15019326 42.4966226 132.24366997 39.4921875 130.76953125 C37.72118961 128.66936883 37.48525251 127.71911163 37.5625 125 C37.56378906 124.319375 37.56507812 123.63875 37.56640625 122.9375 C38.16053946 120.2826345 38.7227417 119.53172731 41 118 C43.70117968 117.44061949 46.20563804 117.06524528 48.9375 116.8125 C49.72946777 116.73354492 50.52143555 116.65458984 51.33740234 116.57324219 C65.98044778 115.24909128 80.50012314 115.52556449 95 118 C96.0209375 118.17144531 97.041875 118.34289062 98.09375 118.51953125 C111.43332061 121.29860846 123.73632337 128.03166523 133 138 C133.64324219 138.68578125 134.28648437 139.3715625 134.94921875 140.078125 C140.25420158 146.29220467 143.06202549 153.46859785 146 161 C146.66628245 162.6668203 147.33279329 164.33354945 148 166 C157.64373447 167.7733919 166.23778633 168.19611281 176 167 C177.06605469 166.97035156 178.13210937 166.94070313 179.23046875 166.91015625 C180.60138672 166.45962891 180.60138672 166.45962891 182 166 C183.26790419 163.48297539 184.04931854 161.41869098 184.8125 158.75 C188.63579835 147.17498372 194.92851473 137.20206211 205 130 C205.72445312 129.48050781 206.44890625 128.96101563 207.1953125 128.42578125 C228.3698681 114.55400143 256.19292126 114.5009903 280.5 116.8125 C281.30695313 116.88251221 282.11390625 116.95252441 282.9453125 117.0246582 C288.51835073 117.62493283 288.51835073 117.62493283 290.70898438 119.33081055 C292.89055217 122.15141928 292.41983139 124.58137294 292 128 C290.5390625 130.23828125 290.5390625 130.23828125 288 132 C284.94529518 132.35810527 281.99022011 132.04164821 278.9375 131.75 C277.12785231 131.6214575 275.31794373 131.49654358 273.5078125 131.375 C272.5890332 131.30925781 271.67025391 131.24351562 270.72363281 131.17578125 C251.88959607 129.96024643 230.13560725 130.17828954 215 143 C219.74562044 143.07779706 224.35050863 143.00883866 229.07104492 142.50878906 C235.0711306 141.94319204 241.02696272 141.82209762 247.05078125 141.796875 C248.17483368 141.78981537 249.29888611 141.78275574 250.45700073 141.77548218 C285.29812908 141.60646561 318.20757077 144.33013374 352.49023438 150.38330078 C355.65747542 150.93981517 358.82712705 151.47668358 362 152 C361.68853528 150.10399631 361.37578283 148.20820413 361.0625 146.3125 C360.88847656 145.25675781 360.71445312 144.20101562 360.53515625 143.11328125 C360.06828808 140.39726713 359.5465601 137.70076765 359 135 C358.11368896 134.75262085 358.11368896 134.75262085 357.20947266 134.50024414 C335.22720525 128.32471554 313.68048661 121.21672822 292.62133789 112.36206055 C268.45934137 102.36265792 242.81781153 102.34615926 218.41796875 111.5546875 C208.582811 115.7135542 199.03575062 120.88726276 191.46875 128.55078125 C188.24219511 131.73252288 186.00405042 132.30021655 181.625 132.3125 C180.08187295 132.23284005 178.53910736 132.13687714 177 132 C176.80448662 130.39679026 176.61888017 128.79237014 176.4375 127.1875 C176.33308594 126.29417969 176.22867188 125.40085937 176.12109375 124.48046875 C176 122 176 122 177 119 C178.31341566 118.29490317 179.64989682 117.63201552 181 117 C182.13220169 116.01035155 183.23441719 114.98584259 184.3125 113.9375 C198.59090723 101.28940815 217.36143096 94.0401681 236 91 C237.06089844 90.81695312 238.12179687 90.63390625 239.21484375 90.4453125 C261.06903508 87.87423117 280.56208391 91.65993121 301 99 C301.99 99.33 302.98 99.66 304 100 C307.04496546 88.07289514 309.88428005 76.10349141 312.62915039 64.10400391 C313.09062705 62.09223607 313.55522323 60.08118165 314.02270508 58.07080078 C314.70538842 55.13462483 315.3791362 52.19653037 316.05078125 49.2578125 C316.36780754 47.90491623 316.36780754 47.90491623 316.6912384 46.52468872 C316.87861069 45.69556976 317.06598297 44.86645081 317.2590332 44.01220703 C317.42683792 43.28325226 317.59464264 42.55429749 317.76753235 41.80325317 C318.18316855 39.90141839 318.18316855 39.90141839 317 38 C316.175 38.6290625 315.35 39.258125 314.5 39.90625 C293.67614401 55.46686646 272.51671853 61.37009703 246.79272461 63.20355225 C213.2341134 65.29702159 213.2341134 65.29702159 185 82 C175.33957563 93.53421358 172.99083447 107.30668263 172.34375 121.8984375 C172.0194245 124.82473805 171.61380331 126.56776787 170 129 C167.19084526 130.40457737 165.11189466 130.24895157 162 130 C159.86132812 128.80664062 159.86132812 128.80664062 158 127 C157.33398438 124.63085938 157.33398438 124.63085938 157.09375 121.84375 C156.98933594 120.82023437 156.88492188 119.79671875 156.77734375 118.7421875 C156.64005859 117.13730469 156.64005859 117.13730469 156.5 115.5 C155.23080122 101.09191242 151.54808336 89.07328391 140.9375 78.8125 C132.88369016 72.10543651 124.03269568 68.95133269 113.9140625 66.953125 C113.04795853 66.78135742 112.18185455 66.60958984 111.289505 66.43261719 C100.41188817 64.38090132 89.42899136 63.61888908 78.40454102 62.79101562 C63.73214779 61.66643736 49.8333755 59.94355453 36.4375 53.375 C35.74132568 53.04234131 35.04515137 52.70968262 34.32788086 52.36694336 C27.97702946 49.21497517 22.3002741 45.27690215 16.66015625 41.00390625 C14.19880842 39.0240033 14.19880842 39.0240033 12 38 Z M-47 171 C-47 175.26770966 -46.48948052 176.3410084 -44.359375 179.8671875 C-43.50436401 181.30227661 -43.50436401 181.30227661 -42.63208008 182.76635742 C-42.01099365 183.79220947 -41.38990723 184.81806152 -40.75 185.875 C-39.45458043 188.05453479 -38.16166012 190.23555674 -36.87109375 192.41796875 C-36.21866699 193.52060059 -35.56624023 194.62323242 -34.89404297 195.75927734 C-30.55288331 203.18703621 -26.48093998 210.76338994 -22.42041016 218.34716797 C-21.48579422 220.09270539 -20.54805117 221.83657266 -19.60693359 223.57861328 C-11.76695551 238.10440454 -4.78961866 252.9598413 2 268 C7.84377111 266.78680189 13.50139071 265.29148791 19.20483398 263.53808594 C50.39825002 253.98882049 82.82666458 251.16548223 115.3125 250.4375 C117.13216895 250.39419386 118.95183052 250.35057626 120.77148438 250.30664062 C125.18091281 250.20084182 129.59041925 250.0992387 134 250 C133.99000725 248.82608955 133.99000725 248.82608955 133.97981262 247.62846375 C133.91972568 240.25662878 133.8740381 232.88491239 133.84456348 225.51289654 C133.8289009 221.7227656 133.80765222 217.93283684 133.77368164 214.14282227 C133.7411087 210.48589399 133.72315145 206.8291603 133.71536827 203.17209816 C133.70982099 201.77621204 133.6989885 200.38033669 133.68280983 198.98453331 C133.66106571 197.0310541 133.65977485 195.07737949 133.65942383 193.1237793 C133.64943108 191.4549897 133.64943108 191.4549897 133.63923645 189.75248718 C134 187 134 187 135.37284851 185.16413879 C138.4337865 182.97420339 141.16743421 182.87048977 144.8125 183.4375 C145.534375 183.623125 146.25625 183.80875 147 184 C147.97577007 187.30810004 148.18027774 190.38985933 148.28125 193.83154297 C148.33635742 195.59520706 148.33635742 195.59520706 148.39257812 197.39450073 C148.42802734 198.66423737 148.46347656 199.933974 148.5 201.2421875 C148.56207333 203.25256598 148.62414982 205.26294437 148.68640137 207.27331734 C148.77272328 210.09410294 148.85515896 212.91499667 148.9375 215.73590088 C149.10023307 221.30553554 149.2674566 226.8750217 149.43969727 232.44437027 C149.49813184 234.36818308 149.55283846 236.29210801 149.60742188 238.21603394 C149.8595257 246.50069911 150.34822632 254.7374437 151 263 C158.4059668 267.13356286 167.18903995 267.2997168 175.3125 265 C176.6428125 264.505 176.6428125 264.505 178 264 C179.12266036 260.36314766 179.17516177 256.8996833 179.24951172 253.10766602 C179.26434601 252.42260986 179.2791803 251.73755371 179.29446411 251.03173828 C179.32629662 249.54819582 179.35621314 248.06461127 179.38442612 246.58099556 C179.43013307 244.23099765 179.48310738 241.88127064 179.5383606 239.53147888 C179.69494039 232.85185436 179.84493053 226.17215874 179.97412109 219.49194336 C180.05373712 215.4021351 180.14735013 211.3128482 180.24994278 207.22355461 C180.28627281 205.66758471 180.31733554 204.1114824 180.34298325 202.55529976 C180.37936007 200.3769127 180.43354568 198.19962791 180.49169922 196.02172852 C180.51755096 194.78358902 180.54340271 193.54544952 180.57003784 192.26979065 C181.03467509 188.73630175 181.82499136 186.8028929 184 184 C187.50534334 182.78075014 189.22779627 182.67563589 192.65983582 184.11726379 C195 186 195 186 195.60127258 188.75248718 C195.584618 190.42127678 195.584618 190.42127678 195.56762695 192.1237793 C195.5672493 193.38486008 195.56687164 194.64594086 195.56648254 195.94523621 C195.54094926 197.32157373 195.51486928 198.6979012 195.48828125 200.07421875 C195.47895438 201.48239386 195.47183767 202.89058521 195.46684265 204.29878235 C195.44776213 208.00311165 195.39865457 211.70645884 195.34332275 215.41040039 C195.29215161 219.19078281 195.26933332 222.97132412 195.24414062 226.75195312 C195.19053487 234.16841624 195.10521181 241.58407045 195 249 C197.03974477 249.16391715 199.07965436 249.32578409 201.11962891 249.48681641 C202.25558502 249.5771817 203.39154114 249.667547 204.56192017 249.76065063 C208.76319002 250.05313112 212.95747357 250.18187412 217.16674805 250.2902832 C251.95609012 251.20892727 288.99837657 254.12733562 321.57885742 267.328125 C324.27817981 268.07719581 325.47819373 268.21792355 328 267 C329.34420974 265.09590256 329.34420974 265.09590256 330.3046875 262.63671875 C330.7157373 261.70142334 331.12678711 260.76612793 331.55029297 259.80249023 C331.98744629 258.77454346 332.42459961 257.74659668 332.875 256.6875 C333.85005694 254.48255304 334.82940499 252.27949987 335.8125 250.078125 C336.58787109 248.33885742 336.58787109 248.33885742 337.37890625 246.56445312 C346.7340726 225.99435843 357.33636941 205.85999158 369.29296875 186.6796875 C369.81221924 185.8458252 370.33146973 185.01196289 370.86645508 184.15283203 C371.84624719 182.59220508 372.83642964 181.038036 373.83862305 179.49169922 C374.96810679 177.70684122 375.99480755 175.85769743 377 174 C376.67 173.01 376.34 172.02 376 171 C373.03225309 169.97778161 373.03225309 169.97778161 369.34375 169.31640625 C368.65876434 169.17603439 367.97377869 169.03566254 367.26803589 168.89103699 C365.01463025 168.43384558 362.75783012 167.99727465 360.5 167.5625 C358.93302091 167.25270606 357.36612687 166.9424816 355.79931641 166.63183594 C351.2043577 165.72843179 346.60364173 164.85793809 342 164 C340.83049805 163.78134277 339.66099609 163.56268555 338.45605469 163.33740234 C331.32747421 162.03517173 324.18489105 160.94156619 317 160 C315.86675293 159.85046875 314.73350586 159.7009375 313.56591797 159.546875 C279.54671105 155.2662209 243.93909988 154.72638146 210 160 C209.04085693 160.14526123 208.08171387 160.29052246 207.09350586 160.44018555 C206.18995361 160.59527588 205.28640137 160.75036621 204.35546875 160.91015625 C203.16280396 161.11330444 203.16280396 161.11330444 201.94604492 161.32055664 C199.61344048 161.90877156 199.61344048 161.90877156 198.0625 165.0625 C197.67136455 166.36446134 197.32035632 167.67884062 197 169 C196.51379976 170.60840294 196.01351372 172.21260802 195.5 173.8125 C195.2834375 174.56144531 195.066875 175.31039062 194.84375 176.08203125 C194 178 194 178 191 180 C188.90625 180.50244141 188.90625 180.50244141 186.5 180.8515625 C185.61892578 180.98095215 184.73785156 181.1103418 183.83007812 181.24365234 C182.89615234 181.36949707 181.96222656 181.4953418 181 181.625 C180.04029297 181.75471191 179.08058594 181.88442383 178.09179688 182.01806641 C167.73634836 183.36089564 158.40770452 183.0571117 148.0625 181.75 C146.67417969 181.58636963 146.67417969 181.58636963 145.2578125 181.41943359 C141.45904835 180.88741138 138.69910404 180.47260304 135.4921875 178.3046875 C133.01235531 174.47458019 132.28350223 170.28984645 131.22265625 165.8984375 C130.28458287 162.92666392 130.28458287 162.92666392 128.03125 161.69921875 C123.53144624 160.66124855 119.01601096 160.02258355 114.4375 159.4375 C113.51130859 159.31181641 112.58511719 159.18613281 111.63085938 159.05664062 C108.756536 158.67671276 105.88043675 158.33026601 103 158 C102.14591553 157.89993652 101.29183105 157.79987305 100.41186523 157.69677734 C51.15421346 152.75453804 0.92015939 159.76560579 -47 171 Z " fill="#000000" transform="translate(73,205)"/>
<path d="M0 0 C12.13437422 10.9606906 17.17588642 24.6236399 18.859375 40.64453125 C19.08282368 45.56040224 19.11506895 48.32699933 16.37890625 52.51171875 C12.95203083 54.59764292 11.43697145 55.08110733 7.50390625 54.26171875 C4.06889393 51.55766888 2.66350865 50.02066139 1.75390625 45.6953125 C1.6545976 44.36437693 1.57192927 43.03211956 1.50390625 41.69921875 C0.63075189 31.81592683 -2.3323697 21.52251224 -9.49609375 14.26171875 C-16.17766332 8.97861723 -23.30696819 6.75091557 -31.80859375 6.9453125 C-39.66422165 7.87017567 -45.76472987 10.97122902 -51.49609375 16.26171875 C-52.15609375 16.26171875 -52.81609375 16.26171875 -53.49609375 16.26171875 C-53.76421875 16.80441406 -54.03234375 17.34710938 -54.30859375 17.90625 C-55.16327015 19.60154562 -56.04116472 21.28520799 -56.93359375 22.9609375 C-57.44921875 23.94707031 -57.96484375 24.93320313 -58.49609375 25.94921875 C-59.26953125 27.40908203 -59.26953125 27.40908203 -60.05859375 28.8984375 C-67.09955766 45.37199708 -64.6785203 65.89463234 -58.36328125 82.18359375 C-49.55876943 101.4252421 -29.86246223 108.25734778 -11.44580078 115.45361328 C35.44903526 133.7888135 35.44903526 133.7888135 45.96484375 155.2421875 C47.24528695 158.22125332 48.40861144 161.21023593 49.50390625 164.26171875 C49.76300781 164.9578125 50.02210938 165.65390625 50.2890625 166.37109375 C51.60258532 170.3029634 51.73604711 173.30126599 50.50390625 177.26171875 C48.87890625 179.63671875 48.87890625 179.63671875 46.50390625 181.26171875 C43.00390625 181.76171875 43.00390625 181.76171875 39.50390625 181.26171875 C35.97654185 178.44244981 34.8187865 175.93161986 33.62890625 171.63671875 C29.25815986 157.67413983 21.39627928 149.13827918 8.625 142.296875 C0.85777608 138.34027351 -7.3631315 135.36750034 -15.49609375 132.26171875 C-48.05930744 119.77071638 -48.05930744 119.77071638 -60.49609375 108.26171875 C-61.19089844 107.62105469 -61.88570312 106.98039062 -62.6015625 106.3203125 C-77.68503484 90.94509021 -80.79789313 69.91072526 -80.81079102 49.31567383 C-80.60897291 32.1993487 -76.34094088 17.19288708 -64.37109375 4.38671875 C-46.39930475 -12.54681009 -19.89014152 -15.66312455 0 0 Z " fill="#000000" transform="translate(197.49609375,44.73828125)"/>
<path d="M0 0 C9.43189827 6.7823014 15.91404456 15.92945829 18.375 27.375 C19.57922773 42.28416983 18.7688729 55.69307948 9.44140625 67.9609375 C1.82904045 76.85402269 -7.18498154 82.84585312 -16.90454102 89.18896484 C-29.31182203 97.35343969 -37.95960308 104.28375619 -41.125 119.1875 C-41.3209375 120.28707031 -41.516875 121.38664062 -41.71875 122.51953125 C-42.7664193 125.82059271 -43.60809221 126.75563038 -46.625 128.375 C-50.43680865 128.85147608 -52.69180993 128.90141491 -56.0625 127 C-59.08407967 121.92374616 -58.13528131 116.74293463 -56.9296875 111.1484375 C-52.15577148 94.01850355 -40.64172632 84.24402579 -26.125 74.8125 C-9.24281874 64.16496229 -9.24281874 64.16496229 0.9765625 47.5859375 C2.56699048 38.76062146 2.5918657 29.26825276 -2.06640625 21.4296875 C-6.40392053 15.7115609 -11.26965213 12.05249856 -18.4375 10.9375 C-24.27505766 11.7387334 -28.27295627 14.85395081 -32.125 19.1875 C-33.99518806 23.16164962 -34.43128031 26.06616864 -33.625 30.375 C-31.11190712 36.23888338 -26.39546568 38.6656802 -21.0859375 41.76171875 C-18.625 43.375 -18.625 43.375 -16.625 46.375 C-16.80540501 49.7425602 -16.98605284 52.36613606 -18.8125 55.25 C-21.42376792 56.87078698 -23.56602122 57.11825118 -26.625 57.375 C-35.92037341 54.33777654 -43.49983835 48.83807894 -48 40.125 C-51.38177908 32.77330634 -51.91628612 24.63349047 -49.9765625 16.734375 C-46.24324384 7.60848495 -39.17835544 1.0182501 -30.625 -3.625 C-20.15810162 -7.73699579 -9.42657626 -5.83087191 0 0 Z " fill="#000000" transform="translate(314.625,130.625)"/>
<path d="M0 0 C0.66 -0.00128906 1.32 -0.00257812 2 -0.00390625 C4.89049063 0.81468973 6.0886254 2.27298186 8 4.5625 C8.59008789 7.08935547 8.59008789 7.08935547 8.72265625 9.9296875 C8.78428955 10.97374756 8.84592285 12.01780762 8.90942383 13.09350586 C8.95993896 14.19702393 9.0104541 15.30054199 9.0625 16.4375 C10.31768415 38.00711686 10.31768415 38.00711686 20.625 56.5 C24.52054574 58.88061129 28.06325676 59.79925274 32.51171875 60.69140625 C35.5382939 61.75094512 36.444996 62.79296673 38 65.5625 C38.47059072 69.32722573 38.72806991 71.55468821 36.46484375 74.6875 C33.22228623 77.15410477 30.05793969 77.55013538 26.125 78.0625 C19.70462007 78.90822723 15.0444025 80.30657574 10.42578125 85.24609375 C7.09817865 90.48852733 5.90826793 95.60558592 4.87109375 101.70703125 C3.85811586 105.02760004 3.02150387 105.93809516 0 107.5625 C-3.5 108.0625 -3.5 108.0625 -7 107.5625 C-10.89983587 103.77019636 -11.6910181 100.40999363 -12.5 95.125 C-13.46053048 88.86259402 -14.96376512 84.40148528 -19.68359375 79.98828125 C-24.92602733 76.66067865 -30.04308592 75.47076793 -36.14453125 74.43359375 C-39.45531306 73.42360149 -40.36123942 72.56036918 -42 69.5625 C-42.65072598 65.73948487 -42.37475371 64.13801462 -40.25 60.875 C-36.22701346 58.01249035 -32.57325641 57.35239403 -27.80859375 56.28515625 C-22.49210453 54.91721396 -20.19305338 52.13783742 -17.4375 47.625 C-11.86800512 36.76535794 -10.29259948 25.90235523 -9.21435547 13.87670898 C-7.77844291 -0.25826861 -7.77844291 -0.25826861 0 0 Z M-2 53.5625 C-3.17811803 55.13733125 -4.34212826 56.72272373 -5.5 58.3125 C-6.1496875 59.19421875 -6.799375 60.0759375 -7.46875 60.984375 C-9.34043943 63.63592625 -9.34043943 63.63592625 -9 67.5625 C-6.83333333 70.39583333 -6.83333333 70.39583333 -4 72.5625 C0.36795404 72.5625 0.74658993 72.33487852 3.75 69.5625 C4.36359375 69.005625 4.9771875 68.44875 5.609375 67.875 C6.06828125 67.441875 6.5271875 67.00875 7 66.5625 C5.88147781 64.57966521 4.75498675 62.60132377 3.625 60.625 C2.99851562 59.52285156 2.37203125 58.42070312 1.7265625 57.28515625 C0.28101386 54.48806953 0.28101386 54.48806953 -2 53.5625 Z " fill="#000000" transform="translate(395,82.4375)"/>
<path d="M0 0 C4.02911583 3.12125174 4.68781755 5.88062891 5.5 10.8125 C6.91658122 18.03781375 8.17823652 23.24446408 14.375 27.75 C19.18164508 30.53422649 24.3984862 31.26941103 29.828125 32.12890625 C33.38835648 33.10665455 34.7903847 34.07708656 37 37 C37.54029084 40.78203585 37.7629851 42.96272659 35.45703125 46.09765625 C32.26321057 48.57045541 29.05921386 49.17453939 25.1875 49.9375 C18.39837192 51.47563803 13.11312099 52.73313449 8.77734375 58.67578125 C5.93964715 63.58835278 5.23307143 68.68616696 4.58984375 74.265625 C3.93797742 77.28752189 3.14579464 78.79333175 1 81 C-2.73516519 82.03754589 -5.0992085 82.28024624 -8.8125 81.125 C-12.11799158 77.91395103 -12.21814781 74.41916457 -13 70 C-14.48686241 63.61128798 -15.95958785 58.50419809 -21 54 C-26.92481149 50.76438866 -32.99202129 49.45415582 -39.65234375 48.6875 C-42.66840243 47.80426152 -43.47935191 46.70773466 -45 44 C-45.468775 40.24979998 -45.74389568 38.01457528 -43.46484375 34.90625 C-40.25815152 32.42627249 -37.01560674 31.77098262 -33.125 31 C-26.25628975 29.62370926 -21.35162768 27.86390335 -16.72265625 22.2265625 C-14.76889111 18.56712938 -14.08880171 15.46304469 -13.4375 11.375 C-12.11084966 3.11845565 -12.11084966 3.11845565 -9 0 C-5.41563853 -1.19478716 -3.63093708 -0.96330984 0 0 Z M-5 34 C-6.57840572 35.55705194 -6.57840572 35.55705194 -8.125 37.5 C-8.66382813 38.1496875 -9.20265625 38.799375 -9.7578125 39.46875 C-10.16773438 39.9740625 -10.57765625 40.479375 -11 41 C-9.02 42.98 -7.04 44.96 -5 47 C-1.2047869 45.50902342 0.61042731 43.24299151 3 40 C2.0479279 38.99403703 1.08812654 37.99538437 0.125 37 C-0.67550781 36.1646875 -0.67550781 36.1646875 -1.4921875 35.3125 C-2.91824988 33.78114478 -2.91824988 33.78114478 -5 34 Z " fill="#000000" transform="translate(289,18)"/>
<path d="M0 0 C4.24739773 4.4769868 6.01887369 10.00459625 6.75 16.0625 C5.7638666 23.6698148 3.49515779 28.18067434 -2.5859375 33.0234375 C-7.96208444 36.64084492 -13.10567688 36.79288805 -19.328125 35.97265625 C-25.48851876 34.57534839 -29.11203518 30.30410489 -32.6875 25.4375 C-35.20571906 21.00063785 -35.23564426 16.41362208 -34.6875 11.4375 C-32.87539207 5.810428 -30.18573416 0.47367131 -24.90234375 -2.6015625 C-15.81955489 -6.46581064 -8.35933445 -4.86007817 0 0 Z M-16.6875 11.4375 C-18.91488107 14.12421748 -18.91488107 14.12421748 -18.5625 16.5 C-17.4288007 19.01033417 -16.20131062 19.46441202 -13.6875 20.4375 C-12.3675 19.4475 -11.0475 18.4575 -9.6875 17.4375 C-10.0175 15.7875 -10.3475 14.1375 -10.6875 12.4375 C-13.6575 11.9425 -13.6575 11.9425 -16.6875 11.4375 Z " fill="#000000" transform="translate(94.6875,99.5625)"/>
<path d="M0 0 C4.89872999 2.85759249 7.79346527 7.1303958 9.5625 12.4375 C10.51465468 25.12679215 10.51465468 25.12679215 6.5625 30.4375 C1.16797779 35.83202221 -2.44385893 38.56967146 -10.25 38.6875 C-16.28086159 38.60051642 -19.9282874 37.9467126 -24.3125 33.5625 C-29.75416577 27.59422142 -30.79670567 23.57819876 -30.71875 15.51953125 C-30.195925 9.79024068 -28.07518243 6.03319057 -24 2.0625 C-16.82168219 -2.48960398 -7.90938492 -3.50358686 0 0 Z M-14.4375 15.4375 C-14.6875773 17.89559998 -14.6875773 17.89559998 -14.4375 20.4375 C-13.7775 21.0975 -13.1175 21.7575 -12.4375 22.4375 C-9.13066534 22.14766731 -9.13066534 22.14766731 -6.4375 20.4375 C-6.27083333 17.9375 -6.27083333 17.9375 -6.4375 15.4375 C-7.55586224 14.09345225 -7.55586224 14.09345225 -10.4375 14.3125 C-13.31913776 14.09345225 -13.31913776 14.09345225 -14.4375 15.4375 Z " fill="#000000" transform="translate(457.4375,244.5625)"/>
<path d="M0 0 C2.6875 2.375 2.6875 2.375 5 5 C7.16620544 6.29519995 7.16620544 6.29519995 9 7 C9.845625 6.030625 10.69125 5.06125 11.5625 4.0625 C14.01808785 1.62428659 15.11782168 0.96279315 18.5625 -0.125 C22 0 22 0 24.875 1.5625 C27.45248068 4.51902195 28 6.08967888 28 10 C26.32568709 13.70111274 23.95555062 16.24828046 21 19 C22.13068534 21.54404202 23.21924052 23.23858527 25.125 25.3125 C27.57158667 28.81927423 27.61001008 30.80618071 27 35 C25.5 37.4375 25.5 37.4375 23 39 C18.08320333 39.88663547 18.08320333 39.88663547 15 39 C12.30139592 36.95190688 10.13803654 34.61909477 8 32 C7.27683594 32.63228516 7.27683594 32.63228516 6.5390625 33.27734375 C5.90742188 33.82519531 5.27578125 34.37304688 4.625 34.9375 C3.99851563 35.48277344 3.37203125 36.02804688 2.7265625 36.58984375 C0.42797431 38.46719745 -0.83317307 38.97775641 -3.8125 39.375 C-7 39 -7 39 -9.875 36.875 C-12 34 -12 34 -12.75 31.1875 C-11.61127408 26.34791483 -8.4435074 23.46107632 -5 20 C-5.42152344 19.48050781 -5.84304687 18.96101563 -6.27734375 18.42578125 C-12.10544605 11.00694985 -12.10544605 11.00694985 -12 7 C-9.3073268 0.33242828 -7.18099219 -0.73027039 0 0 Z " fill="#000000" transform="translate(144,187)"/>
<path d="M0 0 C0.7734375 0.00128906 1.546875 0.00257812 2.34375 0.00390625 C4.99199194 0.53643316 5.86486037 1.31879773 7.5 3.4375 C8.50496852 6.45240557 8.60335303 8.47931692 8.5625 11.625 C8.55347656 12.52605469 8.54445312 13.42710938 8.53515625 14.35546875 C8.52355469 15.04253906 8.51195312 15.72960937 8.5 16.4375 C9.24765625 16.40269531 9.9953125 16.36789063 10.765625 16.33203125 C11.75046875 16.30496094 12.7353125 16.27789062 13.75 16.25 C15.21179688 16.19779297 15.21179688 16.19779297 16.703125 16.14453125 C19.93427342 16.48298953 21.21915751 17.15665751 23.5 19.4375 C24.60373378 23.41094161 24.91543583 25.52749772 23.1875 29.3125 C21.5 31.4375 21.5 31.4375 19.5 32.4375 C17.45944995 32.50815617 15.41665743 32.52171976 13.375 32.5 C12.27929688 32.49097656 11.18359375 32.48195312 10.0546875 32.47265625 C9.21164063 32.46105469 8.36859375 32.44945312 7.5 32.4375 C7.54640625 33.25734375 7.5928125 34.0771875 7.640625 34.921875 C7.69476563 36.53835937 7.69476563 36.53835937 7.75 38.1875 C7.79640625 39.25484375 7.8428125 40.3221875 7.890625 41.421875 C7.5 44.4375 7.5 44.4375 5.69921875 46.79296875 C3.5 48.4375 3.5 48.4375 0.0625 49 C-3.5 48.4375 -3.5 48.4375 -6.4375 46.625 C-9.43618896 41.99066252 -8.92334995 37.80934048 -8.5 32.4375 C-9.09167969 32.46070313 -9.68335938 32.48390625 -10.29296875 32.5078125 C-18.76473825 32.701295 -18.76473825 32.701295 -22.5 30.4375 C-24.66719206 27.7777643 -24.49534863 26.34912404 -24.3125 22.875 C-23.24087558 18.34120438 -23.24087558 18.34120438 -20.5 16.4375 C-17.36328125 16.14453125 -17.36328125 16.14453125 -13.8125 16.25 C-12.04326172 16.29060547 -12.04326172 16.29060547 -10.23828125 16.33203125 C-9.33464844 16.36683594 -8.43101562 16.40164062 -7.5 16.4375 C-7.55220703 15.20773438 -7.55220703 15.20773438 -7.60546875 13.953125 C-7.63253906 12.87546875 -7.65960938 11.7978125 -7.6875 10.6875 C-7.73970703 9.08648437 -7.73970703 9.08648437 -7.79296875 7.453125 C-7.28240165 2.19768763 -5.34128077 -0.13353202 0 0 Z " fill="#000000" transform="translate(240.5,102.5625)"/>
</svg>
