<?xml version="1.0" encoding="UTF-8"?>
<svg version="1.1" xmlns="http://www.w3.org/2000/svg" width="512" height="512">
<path d="M0 0 C5.11301564 2.39653744 9.50879545 5.62193197 14 9 C14.68288086 9.50321777 15.36576172 10.00643555 16.06933594 10.52490234 C29.3236743 20.30700295 41.86874554 30.85940672 54 42 C54.57008789 42.51965332 55.14017578 43.03930664 55.72753906 43.57470703 C57.6570103 45.33576428 59.57918615 47.10450657 61.5 48.875 C62.15154053 49.46990234 62.80308105 50.06480469 63.47436523 50.67773438 C66.42285177 53.41165707 69.18661048 56.10156521 71.62109375 59.30859375 C76.02102462 65.10973308 76.02102462 65.10973308 82.5703125 67.7578125 C85.30645084 67.8809655 87.98216105 67.94202636 90.71484375 67.92578125 C102.27658538 67.89665848 113.02742767 71.97696904 123.046875 77.4140625 C124.02140625 77.93742187 124.9959375 78.46078125 126 79 C126.82113281 79.48726563 127.64226562 79.97453125 128.48828125 80.4765625 C131.20476236 81.32572671 131.20476236 81.32572671 134.12109375 79.296875 C135.24013588 78.46588998 136.34536485 77.61604401 137.4375 76.75 C142.98839778 72.47404341 147.76743696 69.40637995 155 70.125 C160.43149256 70.85678792 163.86377237 72.43767845 167.44921875 76.73828125 C173.97870764 85.83843506 179.25298402 96.93556546 181 108 C181.99 107.51789063 182.98 107.03578125 184 106.5390625 C185.33314765 105.90065377 186.66649161 105.26265487 188 104.625 C188.64839844 104.30789062 189.29679687 103.99078125 189.96484375 103.6640625 C203.1396258 97.40277994 220.07448645 96.57554094 234.04296875 100.83203125 C249.63067172 106.98886505 265.17153675 115.57584901 272.75 131.25 C278.1179639 144.03422981 279.21228643 156.9558273 278.9921875 170.6796875 C278.97467199 172.68098452 278.95776363 174.68228693 278.94140625 176.68359375 C278.91054235 179.77929176 278.87500437 182.87470851 278.82861328 185.97021484 C278.37301077 209.99859737 278.37301077 209.99859737 289.5234375 230.73828125 C295.83133877 236.69232464 304.3087892 240.07843584 312.375 242.9375 C317.30050935 244.8776122 320.4377129 247.3202673 323 252 C325.16674751 258.01659353 325.5824194 263.0134823 323 269 C319.8473595 274.38576085 314.44384696 277.2401403 309 280 C308.34 280 307.68 280 307 280 C307.28875 280.69480469 307.5775 281.38960938 307.875 282.10546875 C312.67048531 295.24310037 312.17075049 309.31813062 309.45703125 322.90625 C307.8896194 333.51642249 307.37183929 345.61274348 313.21875 354.9453125 C317.96962079 361.25341316 324.43871624 363.23559923 331.75 365.4375 C335.89605938 366.77377349 338.21931268 368.56503331 341 372 C341.598125 372.70125 342.19625 373.4025 342.8125 374.125 C344.95690857 379.316726 344.98138406 384.80332795 343.33203125 390.17578125 C338.9286762 398.59445623 328.32082186 404.20474744 320 408 C319.34 408 318.68 408 318 408 C318.68627169 426.95187771 318.68627169 426.95187771 326.125 443.9375 C331.46015824 447.76489613 337.33888269 449.75459714 343.75 451 C349.37550095 452.15089614 352.82875663 454.44889391 356.3125 459.0625 C358.96013521 463.67134648 359.75729942 467.7523605 359 473 C354.39610815 486.76675953 342.7277716 495.89659707 330.4375 502.625 C325.98139792 504.74795429 321.40260065 506.26238413 316.6875 507.6875 C316.02484131 507.89004395 315.36218262 508.09258789 314.67944336 508.30126953 C302.57302808 511.77099391 290.48098094 512.37296055 277.97314453 512.37060547 C275.399381 512.37495876 272.82736631 512.41135205 270.25390625 512.44921875 C248.94976889 512.59396574 229.11965049 507.48336711 210.55078125 497.00390625 C207.44674817 495.7822577 206.14000758 495.95496623 203 497 C201.20509635 497.86859044 199.43558155 498.7906568 197.6875 499.75 C175.72808607 510.91716538 150.77320417 512.12677947 126.578125 512.23828125 C125.43631901 512.24439454 125.43631901 512.24439454 124.27144623 512.25063133 C120.24476921 512.2713092 116.21812445 512.28569048 112.19140625 512.29516602 C108.08921825 512.30621684 103.98757447 512.34065472 99.88557816 512.38033772 C96.67831585 512.40677808 93.47117847 512.41488158 90.26381683 512.41844749 C88.75389666 512.42323973 87.24397911 512.43463512 85.73416901 512.45348549 C67.40457861 512.66820687 48.69188144 509.33492805 34.96875 496.18359375 C26.13283676 486.38344395 23.33349996 474.42360121 23.72265625 461.42578125 C26.11905488 431.82519536 41.55037104 405.31470164 57.8828125 381.22265625 C69.04323172 364.13143833 70.40423284 343.80740915 70 324 C69.34 324.33 68.68 324.66 68 325 C66.2317046 325.11800814 64.45944018 325.17896043 62.6875 325.2109375 C61.61113281 325.23929687 60.53476563 325.26765625 59.42578125 325.296875 C57.17332773 325.34824224 54.92070451 325.39271411 52.66796875 325.4296875 C38.66142148 325.82845041 27.24407957 330.21121286 17 340 C15.23574047 342.1895345 13.53999617 344.42447441 11.83984375 346.6640625 C3.56928279 357.1646898 -7.48645769 365.16968478 -21 367 C-46.33079802 368.96604795 -70.35530582 365.75791617 -90.33984375 349.04296875 C-102.54540552 337.79716055 -108.47172541 322.87858084 -109.375 306.50390625 C-110.19281335 280.96757746 -103.01775109 253.70262518 -85.4375 234.5 C-78.7380617 227.41233273 -72.52173165 222.42467481 -63.6875 218.3125 C-49.80997942 211.60676496 -36.90036777 203.58978535 -24.40625 194.58203125 C-22 193 -22 193 -20 193 C-22.85040736 190.06051741 -25.77282281 187.29866633 -28.875 184.625 C-30.25146803 183.41833924 -31.62650633 182.21004528 -33 181 C-33.57878906 180.50113281 -34.15757813 180.00226563 -34.75390625 179.48828125 C-47.3954042 167.84402444 -55.72306068 149.5480147 -57.3203125 132.6015625 C-57.55283291 125.82746797 -57.23633092 121.38128523 -53 116 C-47.7951415 111.1759848 -43.68498305 110.72468965 -36.82421875 110.76953125 C-34.21720149 110.9822754 -32.4934644 111.4022437 -30.125 112.4375 C-20.77655928 116.42489614 -10.3473968 115.50720508 -1 112 C-0.34 111.34 0.32 110.68 1 110 C0.5153125 108.84628906 0.030625 107.69257812 -0.46875 106.50390625 C-30.11450338 34.86124682 -30.11450338 34.86124682 -22.9375 10.375 C-17.68354478 1.22294897 -10.27278755 -1.725643 0 0 Z M-5 19 C-4.69074097 26.02017991 -3.54893541 32.7729947 -2.0625 39.625 C-1.89266602 40.43114746 -1.72283203 41.23729492 -1.54785156 42.06787109 C-1.10020419 44.06182039 -0.55779976 46.03401897 0 48 C8.49124787 52.24562393 24.04437966 51.14526267 33 49 C23.73324254 36.73517395 8.85791258 27.20943233 -4 19 C-4.33 19 -4.66 19 -5 19 Z M41.37646484 65.71142578 C29.25889524 67.3089015 17.2015622 67.20196118 5 67 C7.59127442 75.76495588 10.41205089 84.40189803 13.6875 92.9375 C13.98470947 93.72431152 14.28191895 94.51112305 14.58813477 95.32177734 C15.90453619 99.38660345 15.90453619 99.38660345 19 102 C25.87511179 97.37471715 32.54918527 92.63772065 39 87.4375 C45.33720075 82.34313237 51.96672379 78.07743089 59 74 C58.02180976 72.68677212 57.0424189 71.37443848 56.0625 70.0625 C55.51722656 69.33160156 54.97195312 68.60070312 54.41015625 67.84765625 C53.13092062 66.0865547 53.13092062 66.0865547 52 65 C48.39845209 64.78295756 44.94306257 65.23286531 41.37646484 65.71142578 Z M47.4375 103.1875 C25.43103143 121.56965529 1.15459251 134.41260475 -28 133 C-20.07426116 143.16120364 -9.32991991 149.50193502 3.40625 151.68359375 C22.32466628 153.9914126 37.62907821 146.29526455 52.2421875 135.13671875 C62.10164656 127.7472277 75.60268581 119.42948004 88.2578125 120.20703125 C95.25855515 120.60063165 95.25855515 120.60063165 102 119 C106.32461513 114.97802146 108.57917116 109.46788606 110.93994141 104.15527344 C112.58904 100.80238482 114.74271167 97.97032356 117 95 C91.35046914 81.16805404 69.62616266 84.64520692 47.4375 103.1875 Z M152 89 C132.56766628 100.80334345 118.47388412 119.31625734 113.02563477 141.4934082 C110.55646898 153.5790172 111.30538626 166.74487026 112.92041016 178.90454102 C113.03767615 181.99194602 111.99181778 183.71309811 110 186 C106.94306678 187.52846661 104.37015453 187.23242445 101 187 C100.29875 186.46375 99.5975 185.9275 98.875 185.375 C98.25625 184.92125 97.6375 184.4675 97 184 C92.93162278 185.22898895 89.65602708 187.43192115 86.125 189.75 C62.79317015 204.52648875 34.13747974 207.44981424 7.4609375 201.65625 C1.06622579 200.3734072 1.06622579 200.3734072 -4.76171875 202.765625 C-5.72722656 203.58546875 -6.69273438 204.4053125 -7.6875 205.25 C-22.19755109 217.06810252 -38.97614584 226.5273365 -55.69921875 234.859375 C-72.18535342 243.20775446 -80.91414256 257.00664278 -86.74609375 274.1015625 C-91.94570163 290.06260602 -94.11313073 307.97388967 -86.74609375 323.671875 C-82.51928132 331.27322705 -76.34398517 339.0339036 -68.1953125 342.62890625 C-62.51358252 343.58934103 -57.28916145 340.42744765 -52.61328125 337.51171875 C-43.10754821 330.56075515 -36.44931486 321.66679361 -30.62890625 311.58984375 C-29 309 -29 309 -27 308 C-19.83012552 307.54476987 -19.83012552 307.54476987 -17.0625 309.0625 C-15.31542852 312.24833622 -15 314.324536 -15 318 C-18.67921341 329.19255449 -27.48490097 339.12176433 -36 347 C-36.66 347.66 -37.32 348.32 -38 349 C-25.53232807 349.59844825 -17.12848705 348.8685247 -7.4375 340.4375 C-3.80749253 336.9851852 -0.67389688 333.40608241 2.375 329.4375 C11.6319589 317.77142167 25.53687324 310.86614112 40 308 C43.04846552 307.67532261 46.0889658 307.5643578 49.15234375 307.47265625 C50.91732316 307.40182847 52.68229694 307.33086027 54.44726562 307.25976562 C57.17802803 307.15974394 59.90886588 307.06347008 62.63989258 306.97094727 C85.60918791 306.16607071 109.33580552 304.11244984 126.08984375 286.42578125 C132.89418243 277.78468857 135.94695907 267.88385509 138.22729492 257.30932617 C139.55434216 251.46825712 139.55434216 251.46825712 141.92578125 248.9765625 C145.11921105 247.47306448 147.5286272 247.5660784 151 248 C153.4375 249.375 153.4375 249.375 155 252 C157.36176904 264.46624485 150.68371508 280.42127339 144.23046875 290.86328125 C139.96575226 297.06732144 139.96575226 297.06732144 137.2890625 299.65234375 C135.76959245 300.93006362 135.76959245 300.93006362 136 303 C135.43410156 303.26167969 134.86820313 303.52335938 134.28515625 303.79296875 C131.80637127 305.10227569 129.68711143 306.64104242 127.4375 308.3125 C115.55895423 316.6708344 102.01612749 319.96654069 88 323 C88.01571045 323.83640015 88.01571045 323.83640015 88.03173828 324.68969727 C88.50152093 353.63484972 83.23139376 377.3399213 66.7890625 401.36035156 C53.91772972 420.2231713 38.19503533 447.91146698 42.4609375 471.5546875 C44.26578633 478.54051416 47.09118174 483.44289429 53.19140625 487.43359375 C64.45797619 493.52803046 75.96848114 494.45235002 88.5625 494.36328125 C90.04443359 494.36276039 91.52636787 494.36328679 93.00830078 494.36479187 C96.10118048 494.36470276 99.1937963 494.35440903 102.28662109 494.33618164 C106.18843214 494.31365351 110.08985752 494.31311475 113.99171543 494.31943226 C153.15551267 494.79373205 153.15551267 494.79373205 190 483 C190 479.28658061 189.01689431 478.36572528 186.8125 475.4375 C173.70534363 457.09805138 171.2498883 435.89425568 174.6953125 413.88671875 C176.25874133 405.6893279 178.88215024 397.87893214 182.15673828 390.21044922 C184.44398963 384.69345373 183.82597921 382.09709691 181.6953125 376.6875 C181.17283133 375.45792652 180.64934866 374.22877825 180.125 373 C167.7405675 342.95621577 172.08769541 309.45627091 184.125 280.125 C184.56908203 279.07884521 185.01316406 278.03269043 185.47070312 276.95483398 C188.67208742 269.31389723 192.29821467 260.43839533 191 252 C189.45330877 249.59174882 187.92742742 247.50855411 186.125 245.3125 C177.96103757 234.78101507 171.62419824 223.11206848 167.3125 210.5 C166.01531878 206.54617141 166.01531878 206.54617141 163.21875 203.68359375 C161.10648043 202.82128788 161.10648043 202.82128788 158 202 C156.5 200.25 156.5 200.25 156 198 C156.4411825 192.63996184 157.99634227 188.40621993 160.3125 183.625 C171.37218888 159.3791946 171.65080275 131.71231427 162.4128418 106.78466797 C158.90644214 96.47151231 158.90644214 96.47151231 152 89 Z M186 127 C185.90145345 128.64340867 185.87027589 130.2911461 185.875 131.9375 C185.87242187 132.83339844 185.86984375 133.72929687 185.8671875 134.65234375 C185.84578587 137.02155555 185.84578587 137.02155555 187 139 C189.48548063 139.5174346 191.93048394 139.93640524 194.4375 140.3125 C206.56967708 142.38499614 214.77755356 146.80309366 222.06640625 156.84765625 C229.53946636 168.17422801 231.89790975 179.72285657 233.86767578 192.89648438 C236.62822225 211.03825748 242.17468179 230.96461118 257 243 C265.88602352 248.81148 275.32889651 252.44462931 286 252 C283.45134439 249.37638393 281.04371108 247.03325843 278.125 244.8125 C267.20029356 235.71325865 262.41028554 220.74117185 261 207 C260.68981239 198.59201381 260.92589965 190.16373609 261.04101562 181.75341797 C261.98453172 153.9061904 261.98453172 153.9061904 249.38671875 130.1015625 C238.71361764 120.70364369 225.39659989 116.19954967 211.28125 116.68359375 C202.78533928 117.50284228 192.18668403 120.81331597 186 127 Z M59.6875 151.4375 C42.14379444 164.65913817 22.52943424 171.59571816 0.375 168.4921875 C-9.7212575 166.56592784 -18.9400922 162.781618 -28 158 C-22.54334009 169.91988815 -10.68497378 177.17655152 1 182 C24.43609268 189.85435614 48.25060741 188.93837125 70.71484375 178.69921875 C76.14538749 175.89031681 81.05599281 172.57940405 86 169 C86.80953125 168.55011719 87.6190625 168.10023438 88.453125 167.63671875 C91.75444608 165.52886087 93.58965022 163.75259323 94.50634766 159.83740234 C95.3053822 154.66428185 95.61909454 149.48188723 95.85888672 144.25732422 C96.03363078 141.46202384 96.46319277 138.74718994 97 136 C82.49595066 136 70.85895632 142.97427552 59.6875 151.4375 Z M186 157 C185.84144531 157.74121094 185.68289063 158.48242188 185.51953125 159.24609375 C184.391178 164.33926837 183.27012413 169.32496999 181.58203125 174.26171875 C178.54989019 183.21140921 177.08056496 189.01896327 181 198 C181.49190292 199.29371149 181.97848136 200.58945472 182.4609375 201.88671875 C187.90232686 216.16728067 194.87363814 229.4775766 205 241 C205.67417969 241.81726563 206.34835937 242.63453125 207.04296875 243.4765625 C220.93811594 259.82677212 240.0106557 270.58280327 261.5 272.875 C268.46637412 273.26154357 275.15833905 272.24114089 282 271 C279.00205641 269.2575404 276.04493267 268.48726455 272.67041016 267.7590332 C256.06916458 264.13481762 242.11973966 256.34243545 232.6484375 241.82421875 C222.91731363 225.15217478 218.18526151 206.91490116 215.46801758 187.90234375 C213.81778716 177.00088066 209.48031326 168.33979241 201.5625 160.625 C196.53660164 157.43784494 191.82892371 156.90162154 186 157 Z M207 269 C206.55269531 270.23234375 206.10539062 271.4646875 205.64453125 272.734375 C205.03439574 274.40644772 204.42367808 276.07830808 203.8125 277.75 C203.49369873 278.62382324 203.17489746 279.49764648 202.84643555 280.39794922 C201.1370733 285.0453181 199.33856429 289.60434406 197.3125 294.125 C192.02728256 306.95302776 190.61787615 318.8774296 190.5625 332.6875 C190.5524292 333.98147705 190.5423584 335.2754541 190.53198242 336.60864258 C190.63696701 348.32149781 192.09899419 359.83715115 197.625 370.3125 C197.97272461 370.98273193 198.32044922 371.65296387 198.67871094 372.34350586 C205.36266587 384.65158255 216.32147172 392.02474917 229.5 396.3125 C231.65838319 396.90599197 233.82507845 397.47031431 236 398 C236.87269531 398.21398437 237.74539063 398.42796875 238.64453125 398.6484375 C256.71375188 402.29931956 276.02544044 401.7805001 294 398 C294 397.67 294 397.34 294 397 C292.79085937 396.84144531 291.58171875 396.68289063 290.3359375 396.51953125 C271.39240228 393.88546298 254.41680901 388.49120192 241 374 C231.66834115 361.31477626 228.61969341 347.4951676 230 332 C230.97027095 327.50889436 232.40695881 323.30350336 234 319 C237.15273181 309.25394644 238.47611957 300.27858134 238 290 C237.95875 289.10925781 237.9175 288.21851563 237.875 287.30078125 C237.1813583 284.72966104 237.1813583 284.72966104 234.3671875 283.55078125 C232.63855469 282.93783203 232.63855469 282.93783203 230.875 282.3125 C223.48624922 279.50796827 217.34153482 275.48319458 210.88671875 270.9765625 C208.44557462 268.90583932 208.44557462 268.90583932 207 269 Z M285.4375 287.9375 C275.85734897 290.10224567 265.78098199 290.06542463 256 290 C255.96559814 290.58265625 255.93119629 291.1653125 255.89575195 291.765625 C255.08121 304.61644495 253.3344612 315.87184415 249 328 C246.07820932 337.22882848 245.63434756 345.77197776 249.75390625 354.6953125 C256.19375459 366.60600378 265.97971633 372.78688516 278.640625 377.08984375 C288.69952101 379.81510278 299.76609043 379.94931611 310 378 C310 377.34 310 376.68 310 376 C308.43602951 374.76683793 308.43602951 374.76683793 306.4375 373.5 C297.11601399 366.70721498 292.97713085 357.0400728 291 346 C290.78673297 342.48127326 290.81013486 338.96215712 290.8125 335.4375 C290.81185547 334.4460498 290.81121094 333.45459961 290.81054688 332.43310547 C290.85392126 326.42476684 291.35680534 320.82246411 292.54296875 314.92578125 C294.03111071 305.39912888 293.8218769 295.91771276 290 287 C288.54721401 286.95758445 288.54721401 286.95758445 285.4375 287.9375 Z M197 399 C196.18479365 401.72838435 195.37275157 404.45764417 194.5625 407.1875 C194.21735352 408.34088867 194.21735352 408.34088867 193.86523438 409.51757812 C189.50210228 424.25105317 188.73013685 440.69134679 195 455 C195.40089844 455.9384375 195.80179687 456.876875 196.21484375 457.84375 C203.97336512 473.85553903 219.1130679 483.17488681 235.40234375 488.90234375 C262.21459202 497.08284512 296.46851696 498.30754622 322.4375 486.4296875 C329.79401095 482.34041916 329.79401095 482.34041916 335 476 C333.75476563 476.2165625 333.75476563 476.2165625 332.484375 476.4375 C311.86188178 479.54381697 289.46313412 481.45634472 271.0625 470.1875 C269.6820954 469.15931871 268.32678816 468.09649751 267 467 C265.97326172 466.17435547 265.97326172 466.17435547 264.92578125 465.33203125 C251.15861989 453.0333671 248.72834121 434.34441235 247 417 C246.175 416.91363281 245.35 416.82726562 244.5 416.73828125 C226.65382389 414.56726206 212.28030269 408.26602159 197 399 Z M292.0625 415.875 C283.10272394 417.42169377 274.04758204 418.15961194 265 419 C264.65391929 431.27255446 268.63562377 442.72642717 276.77734375 452.03125 C286.32294683 461.24500184 296.76322012 461.38336585 309.37915039 461.20483398 C311.92008175 461.15001773 314.45985981 461.08325179 317 461 C316.60385498 460.54979492 316.20770996 460.09958984 315.79956055 459.63574219 C303.91937237 445.9848532 301.63714978 432.50787233 300 415 C297.17524175 415 294.83103247 415.35863096 292.0625 415.875 Z " fill="#000000" transform="translate(130,0)"/>
<path d="M0 0 C1.80078125 1.37109375 1.80078125 1.37109375 3.5625 3 C6.67227002 5.86098842 8.60126066 7.17954038 13 7 C17.06167791 5.54710731 20.32418589 3.59339775 23.5625 0.75 C26.94084442 -1.67547804 28.932313 -1.65373541 33 -1 C35.9375 1 35.9375 1 38 4 C38.70768123 7.98874875 38.8743459 10.2586249 37.06640625 13.859375 C32.30754361 20.24218186 23.75245298 24.53939292 16 26 C7.74463774 26.99718237 0.02542123 24.98660285 -6.6640625 20.0234375 C-13.83355091 13.76436031 -13.83355091 13.76436031 -14.3125 8.6875 C-13.95018869 4.41222654 -13.03853708 2.95172173 -10 0 C-6.09649995 -1.30116668 -3.99981631 -0.99995408 0 0 Z " fill="#000000" transform="translate(180,222)"/>
<path d="M0 0 C3.70148157 0.10774861 6.08858184 0.19598865 9.28125 2.19140625 C11.89580657 6.44006068 12.227633 9.62583316 11.1640625 14.3984375 C10.61002514 16.45365227 10.05398524 18.50832809 9.49609375 20.5625 C7.78447025 27.90471009 8.24184065 32.99251371 11.78125 39.62890625 C12.28540693 43.73418412 12.20036565 45.85773345 10.21875 49.50390625 C7.01724794 52.29495933 5.00019271 52.62890625 0.78125 52.62890625 C-3.81501528 50.81177811 -5.84975815 47.8767537 -8.21875 43.62890625 C-11.61222389 33.44848458 -10.95849378 23.28571416 -8.46875 13.00390625 C-8.31196777 12.34140869 -8.15518555 11.67891113 -7.99365234 10.99633789 C-6.73006994 6.26608142 -5.07900334 1.43964707 0 0 Z " fill="#000000" transform="translate(266.21875,127.37109375)"/>
<path d="M0 0 C5.71362554 1.69722087 9.27664208 4.55624629 12.15234375 9.78125 C13.60641731 13.58730431 13.81208663 17.01546281 13 21 C11.05899889 24.58338666 9.94235479 25.69924847 6.0625 26.9375 C2.70351015 27.00605081 0.9131371 26.65340214 -2 25 C-4.41382509 22.41970421 -5 21.5934292 -5 18 C-5.763125 17.9175 -6.52625 17.835 -7.3125 17.75 C-10 17 -10 17 -11.8125 15.4375 C-13.51395393 11.94504192 -13.77340173 8.75546033 -13 5 C-9.58565783 -0.12151326 -5.87759668 -1.1386488 0 0 Z " fill="#000000" transform="translate(77,264)"/>
</svg>
